<svg width="240" height="165" viewBox="0 0 240 165" fill="none" xmlns="http://www.w3.org/2000/svg">
<rect x="0.198242" y="0.64978" width="239.642" height="163.756" rx="11.9821" fill="white"/>
<rect x="24.562" y="139.243" width="0.399405" height="190.915" transform="rotate(-90 24.562 139.243)" fill="#EEEEF7"/>
<rect x="24.562" y="122.867" width="0.399405" height="190.915" transform="rotate(-90 24.562 122.867)" fill="#EEEEF7"/>
<rect x="24.562" y="106.492" width="0.399405" height="190.915" transform="rotate(-90 24.562 106.492)" fill="#EEEEF7"/>
<rect x="24.562" y="90.1163" width="0.399405" height="190.915" transform="rotate(-90 24.562 90.1163)" fill="#EEEEF7"/>
<rect x="24.562" y="73.7407" width="0.399405" height="190.915" transform="rotate(-90 24.562 73.7407)" fill="#EEEEF7"/>
<rect x="24.562" y="57.3651" width="0.399405" height="190.915" transform="rotate(-90 24.562 57.3651)" fill="#EEEEF7"/>
<rect x="24.562" y="40.9896" width="0.399405" height="190.915" transform="rotate(-90 24.562 40.9896)" fill="#EEEEF7"/>
<rect x="24.562" y="24.614" width="0.399405" height="190.915" transform="rotate(-90 24.562 24.614)" fill="#EEEEF7"/>
<path d="M69.2769 143.613V147.039H68.844V144.153L67.9711 144.471V144.081L69.2091 143.613H69.2769ZM72.6984 146.117C72.6984 146.324 72.65 146.5 72.5533 146.646C72.4581 146.789 72.3286 146.898 72.1648 146.973C72.0025 147.048 71.8192 147.086 71.6148 147.086C71.4105 147.086 71.2264 147.048 71.0625 146.973C70.8987 146.898 70.7692 146.789 70.6741 146.646C70.5789 146.5 70.5313 146.324 70.5313 146.117C70.5313 145.981 70.557 145.857 70.6085 145.745C70.6616 145.631 70.7357 145.532 70.8309 145.447C70.9276 145.363 71.0415 145.298 71.1725 145.253C71.3052 145.206 71.451 145.183 71.6102 145.183C71.8192 145.183 72.0057 145.223 72.1695 145.305C72.3333 145.384 72.462 145.494 72.5556 145.635C72.6508 145.775 72.6984 145.936 72.6984 146.117ZM72.2631 146.107C72.2631 145.981 72.2358 145.869 72.1812 145.773C72.1266 145.674 72.0501 145.598 71.9518 145.543C71.8536 145.489 71.7397 145.461 71.6102 145.461C71.4776 145.461 71.3629 145.489 71.2661 145.543C71.171 145.598 71.0969 145.674 71.0438 145.773C70.9908 145.869 70.9643 145.981 70.9643 146.107C70.9643 146.238 70.99 146.351 71.0415 146.444C71.0945 146.536 71.1694 146.607 71.2661 146.657C71.3644 146.706 71.4807 146.73 71.6148 146.73C71.749 146.73 71.8645 146.706 71.9612 146.657C72.0579 146.607 72.132 146.536 72.1835 146.444C72.2366 146.351 72.2631 146.238 72.2631 146.107ZM72.6188 144.518C72.6188 144.684 72.5751 144.833 72.4878 144.965C72.4004 145.098 72.281 145.202 72.1297 145.279C71.9784 145.355 71.8067 145.394 71.6148 145.394C71.4198 145.394 71.2459 145.355 71.093 145.279C70.9416 145.202 70.8231 145.098 70.7372 144.965C70.6514 144.833 70.6085 144.684 70.6085 144.518C70.6085 144.32 70.6514 144.152 70.7372 144.013C70.8246 143.874 70.944 143.768 71.0953 143.695C71.2466 143.621 71.419 143.585 71.6125 143.585C71.8075 143.585 71.9807 143.621 72.132 143.695C72.2834 143.768 72.402 143.874 72.4878 144.013C72.5751 144.152 72.6188 144.32 72.6188 144.518ZM72.1859 144.525C72.1859 144.411 72.1617 144.311 72.1133 144.223C72.065 144.136 71.9979 144.067 71.9121 144.017C71.8262 143.966 71.7264 143.94 71.6125 143.94C71.4986 143.94 71.3988 143.964 71.313 144.013C71.2287 144.06 71.1624 144.127 71.114 144.214C71.0672 144.301 71.0438 144.405 71.0438 144.525C71.0438 144.642 71.0672 144.745 71.114 144.832C71.1624 144.919 71.2295 144.987 71.3153 145.035C71.4011 145.084 71.501 145.108 71.6148 145.108C71.7287 145.108 71.8278 145.084 71.9121 145.035C71.9979 144.987 72.065 144.919 72.1133 144.832C72.1617 144.745 72.1859 144.642 72.1859 144.525ZM74.1938 145.412V145.768H73.0518V145.412H74.1938ZM76.8032 146.683V147.039H74.5729V146.728L75.6892 145.485C75.8265 145.332 75.9326 145.202 76.0075 145.096C76.084 144.989 76.137 144.893 76.1666 144.808C76.1978 144.723 76.2135 144.635 76.2135 144.546C76.2135 144.434 76.19 144.333 76.1432 144.242C76.098 144.15 76.0309 144.077 75.942 144.022C75.8531 143.968 75.7454 143.94 75.619 143.94C75.4677 143.94 75.3413 143.97 75.2399 144.029C75.1401 144.087 75.0652 144.168 75.0152 144.273C74.9653 144.377 74.9404 144.497 74.9404 144.633H74.5074C74.5074 144.441 74.5495 144.266 74.6338 144.106C74.718 143.947 74.8428 143.821 75.0082 143.727C75.1736 143.632 75.3772 143.585 75.619 143.585C75.8343 143.585 76.0184 143.623 76.1713 143.699C76.3242 143.774 76.4412 143.88 76.5224 144.017C76.6051 144.153 76.6464 144.312 76.6464 144.495C76.6464 144.595 76.6292 144.696 76.5949 144.799C76.5621 144.901 76.5161 145.002 76.4568 145.103C76.3991 145.205 76.3312 145.305 76.2532 145.403C76.1768 145.501 76.0949 145.598 76.0075 145.693L75.0948 146.683H76.8032ZM79.5694 145.892V146.248H77.1074V145.993L78.6333 143.631H78.9867L78.6075 144.315L77.5989 145.892H79.5694ZM79.0943 143.631V147.039H78.6614V143.631H79.0943Z" fill="#8794BA"/>
<path d="M119.211 145.122H119.519C119.671 145.122 119.796 145.097 119.894 145.047C119.994 144.996 120.068 144.926 120.116 144.839C120.166 144.75 120.191 144.65 120.191 144.539C120.191 144.408 120.169 144.298 120.126 144.209C120.082 144.12 120.016 144.053 119.929 144.008C119.842 143.963 119.731 143.94 119.597 143.94C119.475 143.94 119.367 143.964 119.274 144.013C119.182 144.06 119.109 144.127 119.056 144.214C119.005 144.301 118.979 144.404 118.979 144.523H118.546C118.546 144.35 118.59 144.192 118.677 144.05C118.764 143.908 118.887 143.795 119.044 143.711C119.204 143.627 119.388 143.585 119.597 143.585C119.803 143.585 119.983 143.621 120.137 143.695C120.292 143.766 120.412 143.874 120.498 144.017C120.583 144.159 120.626 144.337 120.626 144.549C120.626 144.635 120.606 144.727 120.566 144.825C120.527 144.922 120.465 145.012 120.381 145.096C120.298 145.181 120.19 145.25 120.058 145.305C119.925 145.358 119.766 145.384 119.58 145.384H119.211V145.122ZM119.211 145.478V145.218H119.58C119.797 145.218 119.977 145.244 120.119 145.295C120.261 145.347 120.372 145.415 120.453 145.501C120.536 145.587 120.594 145.681 120.626 145.784C120.661 145.886 120.678 145.987 120.678 146.089C120.678 146.248 120.651 146.389 120.596 146.512C120.543 146.635 120.467 146.74 120.369 146.826C120.272 146.912 120.158 146.976 120.027 147.02C119.896 147.064 119.753 147.086 119.599 147.086C119.451 147.086 119.311 147.065 119.18 147.022C119.051 146.98 118.936 146.919 118.836 146.84C118.736 146.759 118.658 146.66 118.602 146.543C118.546 146.424 118.518 146.289 118.518 146.138H118.951C118.951 146.256 118.977 146.36 119.028 146.449C119.081 146.538 119.156 146.607 119.253 146.657C119.351 146.706 119.466 146.73 119.599 146.73C119.732 146.73 119.846 146.707 119.941 146.662C120.037 146.615 120.112 146.545 120.163 146.451C120.216 146.358 120.243 146.24 120.243 146.098C120.243 145.956 120.213 145.84 120.154 145.749C120.094 145.657 120.01 145.589 119.901 145.546C119.793 145.5 119.666 145.478 119.519 145.478H119.211ZM121.822 145.417L121.476 145.328L121.647 143.631H123.395V144.032H122.014L121.911 144.958C121.974 144.922 122.052 144.889 122.148 144.858C122.244 144.826 122.355 144.811 122.48 144.811C122.637 144.811 122.779 144.838 122.903 144.893C123.028 144.946 123.134 145.022 123.222 145.122C123.311 145.222 123.379 145.342 123.425 145.482C123.472 145.623 123.496 145.78 123.496 145.953C123.496 146.117 123.473 146.267 123.428 146.405C123.384 146.542 123.318 146.662 123.229 146.765C123.14 146.866 123.027 146.945 122.892 147.001C122.758 147.057 122.599 147.086 122.417 147.086C122.279 147.086 122.149 147.067 122.026 147.029C121.904 146.99 121.795 146.932 121.698 146.854C121.603 146.774 121.525 146.676 121.464 146.559C121.405 146.44 121.367 146.302 121.352 146.142H121.764C121.782 146.27 121.82 146.378 121.876 146.465C121.932 146.553 122.006 146.619 122.096 146.664C122.188 146.708 122.295 146.73 122.417 146.73C122.52 146.73 122.611 146.712 122.69 146.676C122.77 146.64 122.837 146.589 122.892 146.522C122.946 146.454 122.988 146.373 123.016 146.278C123.045 146.183 123.06 146.076 123.06 145.958C123.06 145.85 123.045 145.75 123.016 145.658C122.986 145.566 122.942 145.486 122.882 145.417C122.825 145.348 122.754 145.295 122.669 145.258C122.585 145.219 122.488 145.199 122.379 145.199C122.234 145.199 122.124 145.219 122.049 145.258C121.976 145.297 121.9 145.35 121.822 145.417ZM124.918 145.412V145.768H123.776V145.412H124.918ZM127.598 145.892V146.248H125.136V145.993L126.662 143.631H127.015L126.636 144.315L125.628 145.892H127.598ZM127.123 143.631V147.039H126.69V143.631H127.123ZM130.294 145.892V146.248H127.832V145.993L129.358 143.631H129.711L129.332 144.315L128.323 145.892H130.294ZM129.819 143.631V147.039H129.386V143.631H129.819Z" fill="#8794BA"/>
<path d="M170.967 143.627H171.005V143.994H170.967C170.738 143.994 170.546 144.032 170.392 144.106C170.237 144.18 170.115 144.279 170.024 144.404C169.934 144.527 169.868 144.666 169.828 144.82C169.789 144.975 169.769 145.131 169.769 145.291V145.791C169.769 145.943 169.787 146.077 169.823 146.194C169.859 146.309 169.908 146.407 169.971 146.486C170.033 146.566 170.103 146.626 170.181 146.667C170.261 146.707 170.343 146.728 170.429 146.728C170.529 146.728 170.618 146.709 170.696 146.671C170.774 146.632 170.84 146.579 170.893 146.51C170.947 146.44 170.989 146.357 171.017 146.262C171.045 146.167 171.059 146.062 171.059 145.948C171.059 145.847 171.046 145.749 171.021 145.656C170.996 145.56 170.958 145.476 170.907 145.403C170.855 145.328 170.79 145.27 170.712 145.227C170.636 145.184 170.545 145.162 170.439 145.162C170.318 145.162 170.206 145.192 170.102 145.251C169.999 145.309 169.914 145.385 169.847 145.48C169.781 145.574 169.744 145.676 169.734 145.787L169.505 145.784C169.527 145.61 169.567 145.461 169.627 145.337C169.687 145.213 169.762 145.111 169.851 145.033C169.942 144.954 170.042 144.896 170.153 144.86C170.265 144.823 170.384 144.804 170.509 144.804C170.679 144.804 170.826 144.836 170.949 144.9C171.072 144.964 171.173 145.05 171.253 145.157C171.333 145.263 171.391 145.383 171.429 145.518C171.468 145.65 171.487 145.787 171.487 145.927C171.487 146.088 171.464 146.238 171.419 146.379C171.374 146.519 171.306 146.642 171.216 146.749C171.127 146.855 171.017 146.937 170.886 146.997C170.755 147.056 170.602 147.086 170.429 147.086C170.245 147.086 170.084 147.048 169.947 146.973C169.81 146.897 169.696 146.795 169.605 146.669C169.515 146.543 169.447 146.402 169.402 146.248C169.357 146.093 169.334 145.936 169.334 145.777V145.574C169.334 145.333 169.358 145.098 169.407 144.867C169.455 144.636 169.538 144.427 169.657 144.24C169.777 144.053 169.943 143.904 170.155 143.793C170.368 143.682 170.638 143.627 170.967 143.627ZM172.549 145.417L172.203 145.328L172.374 143.631H174.122V144.032H172.741L172.638 144.958C172.701 144.922 172.78 144.889 172.875 144.858C172.972 144.826 173.082 144.811 173.207 144.811C173.365 144.811 173.506 144.838 173.631 144.893C173.756 144.946 173.862 145.022 173.949 145.122C174.038 145.222 174.106 145.342 174.153 145.482C174.199 145.623 174.223 145.78 174.223 145.953C174.223 146.117 174.2 146.267 174.155 146.405C174.111 146.542 174.045 146.662 173.956 146.765C173.867 146.866 173.755 146.945 173.619 147.001C173.485 147.057 173.326 147.086 173.144 147.086C173.007 147.086 172.876 147.067 172.753 147.029C172.631 146.99 172.522 146.932 172.425 146.854C172.33 146.774 172.252 146.676 172.191 146.559C172.132 146.44 172.095 146.302 172.079 146.142H172.491C172.51 146.27 172.547 146.378 172.603 146.465C172.659 146.553 172.733 146.619 172.823 146.664C172.915 146.708 173.022 146.73 173.144 146.73C173.247 146.73 173.338 146.712 173.418 146.676C173.497 146.64 173.564 146.589 173.619 146.522C173.674 146.454 173.715 146.373 173.743 146.278C173.773 146.183 173.787 146.076 173.787 145.958C173.787 145.85 173.773 145.75 173.743 145.658C173.713 145.566 173.669 145.486 173.61 145.417C173.552 145.348 173.481 145.295 173.397 145.258C173.312 145.219 173.216 145.199 173.106 145.199C172.961 145.199 172.851 145.219 172.777 145.258C172.703 145.297 172.628 145.35 172.549 145.417ZM176.933 145.211V145.618H174.597V145.211H176.933ZM175.983 144.216V146.697H175.55V144.216H175.983Z" fill="#8794BA"/>
<g style="mix-blend-mode:multiply" opacity="0.45">
<circle cx="62.1054" cy="60.1609" r="19.9702" fill="#0088F0"/>
</g>
<g style="mix-blend-mode:multiply">
<circle cx="75.8854" cy="79.9315" r="13.38" fill="#EF2A82"/>
</g>
<g style="mix-blend-mode:multiply">
<circle cx="168.547" cy="76.7362" r="29.3562" fill="#EF2A82"/>
</g>
<g style="mix-blend-mode:multiply" opacity="0.6">
<circle cx="139.79" cy="97.9046" r="15.377" fill="#0088F0"/>
</g>
<g style="mix-blend-mode:multiply">
<circle cx="119.82" cy="42.3875" r="6.98957" fill="#0088F0"/>
</g>
<g style="mix-blend-mode:multiply">
<circle cx="57.1132" cy="122.668" r="2.99553" fill="#EF2A82"/>
</g>
<g style="mix-blend-mode:multiply">
<circle cx="190.514" cy="105.893" r="13.38" fill="#0088F0"/>
</g>
</svg>
