<svg width="240" height="165" viewBox="0 0 240 165" fill="none" xmlns="http://www.w3.org/2000/svg">
<rect x="0.351562" y="0.906128" width="239.642" height="163.756" rx="11.9821" fill="white"/>
<rect x="24.7156" y="139.499" width="0.399405" height="190.915" transform="rotate(-90 24.7156 139.499)" fill="#EEEEF7"/>
<rect x="24.7153" y="123.124" width="0.399405" height="190.915" transform="rotate(-90 24.7153 123.124)" fill="#EEEEF7"/>
<rect x="24.7153" y="106.748" width="0.399405" height="190.915" transform="rotate(-90 24.7153 106.748)" fill="#EEEEF7"/>
<rect x="24.7153" y="90.3726" width="0.399405" height="190.915" transform="rotate(-90 24.7153 90.3726)" fill="#EEEEF7"/>
<rect x="24.7153" y="73.997" width="0.399405" height="190.915" transform="rotate(-90 24.7153 73.997)" fill="#EEEEF7"/>
<rect x="24.7153" y="57.6215" width="0.399405" height="190.915" transform="rotate(-90 24.7153 57.6215)" fill="#EEEEF7"/>
<rect x="24.7153" y="41.2459" width="0.399405" height="190.915" transform="rotate(-90 24.7153 41.2459)" fill="#EEEEF7"/>
<rect x="24.7153" y="24.8704" width="0.399405" height="190.915" transform="rotate(-90 24.7153 24.8704)" fill="#EEEEF7"/>
<path d="M24.6976 143.869V147.295H24.2646V144.41L23.3917 144.728V144.337L24.6297 143.869H24.6976ZM28.119 146.373C28.119 146.581 28.0707 146.757 27.9739 146.902C27.8788 147.045 27.7493 147.155 27.5855 147.23C27.4232 147.304 27.2399 147.342 27.0355 147.342C26.8311 147.342 26.647 147.304 26.4832 147.23C26.3194 147.155 26.1899 147.045 26.0947 146.902C25.9995 146.757 25.952 146.581 25.952 146.373C25.952 146.237 25.9777 146.113 26.0292 146.001C26.0822 145.887 26.1563 145.788 26.2515 145.704C26.3482 145.619 26.4621 145.555 26.5932 145.509C26.7258 145.463 26.8717 145.439 27.0308 145.439C27.2399 145.439 27.4263 145.48 27.5901 145.561C27.754 145.641 27.8827 145.751 27.9763 145.891C28.0715 146.031 28.119 146.192 28.119 146.373ZM27.6838 146.364C27.6838 146.237 27.6564 146.126 27.6018 146.029C27.5472 145.931 27.4708 145.854 27.3725 145.8C27.2742 145.745 27.1603 145.718 27.0308 145.718C26.8982 145.718 26.7835 145.745 26.6868 145.8C26.5916 145.854 26.5175 145.931 26.4645 146.029C26.4114 146.126 26.3849 146.237 26.3849 146.364C26.3849 146.495 26.4107 146.607 26.4621 146.701C26.5152 146.793 26.5901 146.864 26.6868 146.914C26.7851 146.962 26.9013 146.986 27.0355 146.986C27.1697 146.986 27.2851 146.962 27.3819 146.914C27.4786 146.864 27.5527 146.793 27.6042 146.701C27.6572 146.607 27.6838 146.495 27.6838 146.364ZM28.0395 144.775C28.0395 144.94 27.9958 145.089 27.9084 145.222C27.821 145.354 27.7017 145.459 27.5504 145.535C27.399 145.612 27.2274 145.65 27.0355 145.65C26.8405 145.65 26.6665 145.612 26.5136 145.535C26.3623 145.459 26.2437 145.354 26.1579 145.222C26.0721 145.089 26.0292 144.94 26.0292 144.775C26.0292 144.577 26.0721 144.408 26.1579 144.269C26.2453 144.13 26.3646 144.024 26.516 143.951C26.6673 143.878 26.8397 143.841 27.0332 143.841C27.2282 143.841 27.4014 143.878 27.5527 143.951C27.704 144.024 27.8226 144.13 27.9084 144.269C27.9958 144.408 28.0395 144.577 28.0395 144.775ZM27.6065 144.782C27.6065 144.668 27.5823 144.567 27.534 144.48C27.4856 144.392 27.4185 144.324 27.3327 144.274C27.2469 144.222 27.1471 144.197 27.0332 144.197C26.9193 144.197 26.8194 144.221 26.7336 144.269C26.6494 144.316 26.583 144.383 26.5347 144.47C26.4879 144.558 26.4645 144.662 26.4645 144.782C26.4645 144.899 26.4879 145.001 26.5347 145.088C26.583 145.176 26.6501 145.243 26.7359 145.292C26.8218 145.34 26.9216 145.364 27.0355 145.364C27.1494 145.364 27.2485 145.34 27.3327 145.292C27.4185 145.243 27.4856 145.176 27.534 145.088C27.5823 145.001 27.6065 144.899 27.6065 144.782ZM29.6145 145.669V146.024H28.4724V145.669H29.6145ZM32.2238 146.939V147.295H29.9936V146.984L31.1099 145.741C31.2472 145.588 31.3533 145.459 31.4282 145.353C31.5046 145.245 31.5577 145.149 31.5873 145.065C31.6185 144.979 31.6341 144.892 31.6341 144.803C31.6341 144.69 31.6107 144.589 31.5639 144.498C31.5187 144.406 31.4516 144.333 31.3626 144.279C31.2737 144.224 31.1661 144.197 31.0397 144.197C30.8883 144.197 30.762 144.226 30.6606 144.286C30.5607 144.343 30.4858 144.424 30.4359 144.529C30.386 144.633 30.361 144.754 30.361 144.889H29.9281C29.9281 144.697 29.9702 144.522 30.0544 144.363C30.1387 144.204 30.2635 144.077 30.4289 143.984C30.5943 143.888 30.7979 143.841 31.0397 143.841C31.255 143.841 31.4391 143.879 31.592 143.956C31.7449 144.03 31.8619 144.137 31.943 144.274C32.0257 144.41 32.0671 144.569 32.0671 144.751C32.0671 144.851 32.0499 144.953 32.0156 145.055C31.9828 145.157 31.9368 145.258 31.8775 145.36C31.8198 145.461 31.7519 145.561 31.6739 145.659C31.5974 145.758 31.5155 145.854 31.4282 145.949L30.5155 146.939H32.2238ZM34.99 146.148V146.504H32.5281V146.249L34.0539 143.888H34.4073L34.0282 144.571L33.0195 146.148H34.99ZM34.515 143.888V147.295H34.082V143.888H34.515Z" fill="#8794BA"/>
<path d="M114.97 145.378H115.279C115.431 145.378 115.555 145.353 115.654 145.304C115.754 145.252 115.828 145.183 115.876 145.095C115.926 145.006 115.951 144.906 115.951 144.796C115.951 144.665 115.929 144.555 115.885 144.466C115.842 144.377 115.776 144.31 115.689 144.264C115.601 144.219 115.491 144.197 115.356 144.197C115.235 144.197 115.127 144.221 115.033 144.269C114.941 144.316 114.869 144.383 114.816 144.47C114.764 144.558 114.739 144.661 114.739 144.779H114.306C114.306 144.606 114.349 144.449 114.437 144.307C114.524 144.165 114.647 144.052 114.804 143.967C114.963 143.883 115.147 143.841 115.356 143.841C115.562 143.841 115.743 143.878 115.897 143.951C116.051 144.023 116.172 144.13 116.257 144.274C116.343 144.416 116.386 144.593 116.386 144.805C116.386 144.891 116.366 144.983 116.325 145.081C116.286 145.178 116.225 145.268 116.14 145.353C116.058 145.437 115.95 145.506 115.817 145.561C115.685 145.614 115.526 145.641 115.34 145.641H114.97V145.378ZM114.97 145.734V145.474H115.34C115.557 145.474 115.736 145.5 115.878 145.552C116.02 145.603 116.132 145.672 116.213 145.758C116.296 145.843 116.353 145.938 116.386 146.041C116.42 146.142 116.438 146.244 116.438 146.345C116.438 146.504 116.41 146.645 116.356 146.769C116.303 146.892 116.227 146.996 116.129 147.082C116.032 147.168 115.918 147.233 115.787 147.276C115.656 147.32 115.513 147.342 115.359 147.342C115.211 147.342 115.071 147.321 114.94 147.279C114.81 147.237 114.696 147.176 114.596 147.096C114.496 147.015 114.418 146.916 114.362 146.799C114.306 146.68 114.278 146.545 114.278 146.394H114.711C114.711 146.513 114.736 146.616 114.788 146.705C114.841 146.794 114.916 146.864 115.012 146.914C115.111 146.962 115.226 146.986 115.359 146.986C115.491 146.986 115.605 146.964 115.7 146.918C115.797 146.872 115.871 146.801 115.923 146.708C115.976 146.614 116.002 146.496 116.002 146.354C116.002 146.212 115.973 146.096 115.913 146.006C115.854 145.914 115.77 145.846 115.661 145.802C115.553 145.757 115.426 145.734 115.279 145.734H114.97ZM117.582 145.673L117.236 145.584L117.407 143.888H119.155V144.288H117.774L117.671 145.215C117.733 145.179 117.812 145.145 117.907 145.114C118.004 145.083 118.115 145.067 118.24 145.067C118.397 145.067 118.538 145.094 118.663 145.149C118.788 145.202 118.894 145.279 118.981 145.378C119.07 145.478 119.138 145.598 119.185 145.739C119.232 145.879 119.255 146.036 119.255 146.209C119.255 146.373 119.233 146.524 119.187 146.661C119.144 146.798 119.077 146.918 118.989 147.021C118.9 147.123 118.787 147.201 118.652 147.258C118.517 147.314 118.359 147.342 118.176 147.342C118.039 147.342 117.909 147.323 117.786 147.286C117.664 147.247 117.555 147.188 117.458 147.11C117.363 147.031 117.285 146.932 117.224 146.815C117.165 146.697 117.127 146.558 117.112 146.399H117.524C117.542 146.527 117.58 146.634 117.636 146.722C117.692 146.809 117.765 146.875 117.856 146.921C117.948 146.964 118.055 146.986 118.176 146.986C118.279 146.986 118.371 146.968 118.45 146.932C118.53 146.896 118.597 146.845 118.652 146.778C118.706 146.711 118.747 146.63 118.776 146.535C118.805 146.439 118.82 146.332 118.82 146.214C118.82 146.106 118.805 146.006 118.776 145.914C118.746 145.822 118.701 145.742 118.642 145.673C118.584 145.605 118.513 145.552 118.429 145.514C118.345 145.475 118.248 145.456 118.139 145.456C117.994 145.456 117.884 145.475 117.809 145.514C117.736 145.553 117.66 145.606 117.582 145.673ZM120.678 145.669V146.024H119.536V145.669H120.678ZM123.358 146.148V146.504H120.896V146.249L122.422 143.888H122.775L122.396 144.571L121.387 146.148H123.358ZM122.883 143.888V147.295H122.45V143.888H122.883ZM126.054 146.148V146.504H123.592V146.249L125.118 143.888H125.471L125.092 144.571L124.083 146.148H126.054ZM125.579 143.888V147.295H125.146V143.888H125.579Z" fill="#8794BA"/>
<path d="M209.464 143.883H209.502V144.25H209.464C209.235 144.25 209.043 144.288 208.888 144.363C208.734 144.436 208.611 144.535 208.521 144.66C208.43 144.783 208.365 144.922 208.324 145.077C208.285 145.231 208.266 145.388 208.266 145.547V146.048C208.266 146.199 208.284 146.333 208.32 146.45C208.356 146.566 208.405 146.663 208.467 146.743C208.53 146.822 208.6 146.882 208.678 146.923C208.757 146.964 208.84 146.984 208.926 146.984C209.026 146.984 209.115 146.965 209.193 146.928C209.271 146.889 209.336 146.835 209.389 146.766C209.444 146.696 209.485 146.613 209.513 146.518C209.541 146.423 209.555 146.318 209.555 146.205C209.555 146.103 209.543 146.006 209.518 145.912C209.493 145.817 209.455 145.733 209.403 145.659C209.352 145.584 209.287 145.526 209.209 145.484C209.133 145.44 209.041 145.418 208.935 145.418C208.815 145.418 208.703 145.448 208.598 145.507C208.495 145.565 208.41 145.641 208.343 145.736C208.278 145.83 208.24 145.932 208.231 146.043L208.001 146.041C208.023 145.866 208.064 145.717 208.123 145.594C208.184 145.469 208.259 145.368 208.348 145.29C208.438 145.21 208.539 145.152 208.65 145.116C208.762 145.079 208.881 145.06 209.005 145.06C209.175 145.06 209.322 145.092 209.445 145.156C209.569 145.22 209.67 145.306 209.75 145.414C209.829 145.52 209.888 145.64 209.925 145.774C209.964 145.907 209.984 146.043 209.984 146.183C209.984 146.344 209.961 146.495 209.916 146.635C209.87 146.776 209.803 146.899 209.712 147.005C209.623 147.111 209.513 147.194 209.382 147.253C209.251 147.312 209.099 147.342 208.926 147.342C208.742 147.342 208.581 147.304 208.444 147.23C208.306 147.153 208.193 147.052 208.102 146.925C208.012 146.799 207.944 146.659 207.898 146.504C207.853 146.35 207.831 146.193 207.831 146.034V145.83C207.831 145.59 207.855 145.354 207.903 145.123C207.951 144.892 208.035 144.683 208.154 144.496C208.274 144.309 208.44 144.16 208.652 144.049C208.864 143.938 209.135 143.883 209.464 143.883ZM211.046 145.673L210.7 145.584L210.871 143.888H212.619V144.288H211.238L211.135 145.215C211.197 145.179 211.276 145.145 211.371 145.114C211.468 145.083 211.579 145.067 211.704 145.067C211.861 145.067 212.002 145.094 212.127 145.149C212.252 145.202 212.358 145.279 212.446 145.378C212.534 145.478 212.602 145.598 212.649 145.739C212.696 145.879 212.719 146.036 212.719 146.209C212.719 146.373 212.697 146.524 212.651 146.661C212.608 146.798 212.542 146.918 212.453 147.021C212.364 147.123 212.251 147.201 212.116 147.258C211.981 147.314 211.823 147.342 211.641 147.342C211.503 147.342 211.373 147.323 211.25 147.286C211.128 147.247 211.019 147.188 210.922 147.11C210.827 147.031 210.749 146.932 210.688 146.815C210.629 146.697 210.591 146.558 210.576 146.399H210.988C211.006 146.527 211.044 146.634 211.1 146.722C211.156 146.809 211.229 146.875 211.32 146.921C211.412 146.964 211.519 146.986 211.641 146.986C211.743 146.986 211.835 146.968 211.914 146.932C211.994 146.896 212.061 146.845 212.116 146.778C212.17 146.711 212.212 146.63 212.24 146.535C212.269 146.439 212.284 146.332 212.284 146.214C212.284 146.106 212.269 146.006 212.24 145.914C212.21 145.822 212.166 145.742 212.106 145.673C212.048 145.605 211.978 145.552 211.893 145.514C211.809 145.475 211.712 145.456 211.603 145.456C211.458 145.456 211.348 145.475 211.273 145.514C211.2 145.553 211.124 145.606 211.046 145.673ZM215.429 145.467V145.875H213.094V145.467H215.429ZM214.479 144.473V146.953H214.046V144.473H214.479Z" fill="#8794BA"/>
<path d="M216.03 41.0462L194.462 99.1595L172.894 66.4084L145.369 80.1878L117.843 114.736L88.7712 111.142L59.6993 70.4024L41.8079 62.2146L23.9165 91.5708" stroke="#EF2A82" stroke-width="1.59762"/>
<path d="M23.9165 113.538L45.4843 102.199L67.0521 108.589L94.5776 105.901L122.103 99.1595L151.175 99.8609L180.247 107.81L198.138 109.408L216.03 103.68" stroke="#0088F0" stroke-width="1.59762"/>
</svg>
