<svg width="240" height="165" viewBox="0 0 240 165" fill="none" xmlns="http://www.w3.org/2000/svg">
<rect x="0.198242" y="0.906128" width="239.642" height="163.756" rx="11.9821" fill="white"/>
<rect x="27.5444" y="39.6483" width="26.3607" height="20.769" fill="white"/>
<rect x="53.9053" y="39.6483" width="26.3607" height="20.769" fill="white"/>
<path d="M67.5898 45.4755V54.0536H66.5059V46.829L64.3203 47.6259V46.6474L67.4199 45.4755H67.5898Z" fill="#172755"/>
<rect x="80.2656" y="39.6483" width="26.3607" height="20.769" fill="white"/>
<path d="M95.9775 53.163V54.0536H90.3936V53.2744L93.1885 50.163C93.5322 49.7802 93.7979 49.456 93.9854 49.1904C94.1768 48.9208 94.3096 48.6806 94.3838 48.4697C94.4619 48.2548 94.501 48.0361 94.501 47.8134C94.501 47.5322 94.4424 47.2783 94.3252 47.0517C94.2119 46.8212 94.0439 46.6376 93.8213 46.5009C93.5986 46.3642 93.3291 46.2958 93.0127 46.2958C92.6338 46.2958 92.3174 46.3701 92.0635 46.5185C91.8135 46.663 91.626 46.8661 91.501 47.1279C91.376 47.3896 91.3135 47.6904 91.3135 48.0302H90.2295C90.2295 47.5497 90.335 47.1103 90.5459 46.7119C90.7568 46.3134 91.0693 45.997 91.4834 45.7626C91.8975 45.5244 92.4072 45.4052 93.0127 45.4052C93.5518 45.4052 94.0127 45.5009 94.3955 45.6923C94.7783 45.8798 95.0713 46.1454 95.2744 46.4892C95.4814 46.829 95.585 47.2275 95.585 47.6845C95.585 47.9345 95.542 48.1884 95.4561 48.4462C95.374 48.7001 95.2588 48.954 95.1104 49.2079C94.9658 49.4619 94.7959 49.7119 94.6006 49.9579C94.4092 50.204 94.2041 50.4462 93.9854 50.6845L91.7002 53.163H95.9775Z" fill="#172755"/>
<rect x="106.626" y="39.6483" width="26.3607" height="20.769" fill="white"/>
<path d="M118.331 49.2548H119.104C119.483 49.2548 119.795 49.1923 120.042 49.0673C120.292 48.9384 120.477 48.7646 120.598 48.5458C120.723 48.3232 120.786 48.0732 120.786 47.7958C120.786 47.4677 120.731 47.1923 120.622 46.9697C120.512 46.747 120.348 46.579 120.129 46.4658C119.911 46.3525 119.633 46.2958 119.297 46.2958C118.993 46.2958 118.723 46.3564 118.489 46.4775C118.258 46.5947 118.077 46.7626 117.944 46.9814C117.815 47.2001 117.75 47.4579 117.75 47.7548H116.667C116.667 47.3212 116.776 46.9267 116.995 46.5712C117.213 46.2158 117.52 45.9326 117.915 45.7216C118.313 45.5107 118.774 45.4052 119.297 45.4052C119.813 45.4052 120.264 45.497 120.651 45.6806C121.038 45.8603 121.338 46.1298 121.553 46.4892C121.768 46.8447 121.875 47.288 121.875 47.8193C121.875 48.0341 121.825 48.2646 121.723 48.5107C121.625 48.7529 121.471 48.9794 121.26 49.1904C121.053 49.4013 120.784 49.5751 120.452 49.7119C120.12 49.8447 119.721 49.9111 119.256 49.9111H118.331V49.2548ZM118.331 50.1454V49.4951H119.256C119.799 49.4951 120.249 49.5595 120.604 49.6884C120.959 49.8173 121.239 49.9892 121.442 50.204C121.649 50.4189 121.793 50.6552 121.875 50.913C121.961 51.1669 122.004 51.4208 122.004 51.6747C122.004 52.0732 121.936 52.4267 121.799 52.7353C121.667 53.0439 121.477 53.3056 121.231 53.5204C120.989 53.7353 120.704 53.8974 120.375 54.0068C120.047 54.1161 119.69 54.1708 119.303 54.1708C118.932 54.1708 118.583 54.1181 118.254 54.0126C117.93 53.9072 117.643 53.7548 117.393 53.5556C117.143 53.3525 116.948 53.1044 116.807 52.8115C116.667 52.5146 116.596 52.1767 116.596 51.7978H117.68C117.68 52.0947 117.745 52.3544 117.874 52.5771C118.006 52.7997 118.194 52.9736 118.436 53.0986C118.682 53.2197 118.971 53.2802 119.303 53.2802C119.635 53.2802 119.92 53.2236 120.159 53.1103C120.401 52.9931 120.586 52.8173 120.715 52.5829C120.848 52.3486 120.915 52.0536 120.915 51.6982C120.915 51.3427 120.84 51.0517 120.692 50.8251C120.543 50.5947 120.333 50.4247 120.059 50.3154C119.79 50.2021 119.471 50.1454 119.104 50.1454H118.331Z" fill="#172755"/>
<rect x="132.987" y="39.6483" width="26.3607" height="20.769" fill="white"/>
<path d="M148.875 51.1826V52.0732H142.71V51.4345L146.531 45.5224H147.416L146.466 47.2333L143.941 51.1826H148.875ZM147.685 45.5224V54.0536H146.601V45.5224H147.685Z" fill="#172755"/>
<rect x="159.348" y="39.6483" width="26.3607" height="20.769" fill="white"/>
<path d="M170.841 49.9931L169.974 49.7704L170.401 45.5224H174.778V46.5244H171.321L171.063 48.8447C171.22 48.7548 171.417 48.6708 171.655 48.5927C171.897 48.5146 172.175 48.4755 172.487 48.4755C172.882 48.4755 173.235 48.5439 173.548 48.6806C173.86 48.8134 174.126 49.0048 174.345 49.2548C174.567 49.5048 174.737 49.8056 174.854 50.1572C174.972 50.5087 175.03 50.9013 175.03 51.3349C175.03 51.7451 174.974 52.122 174.86 52.4658C174.751 52.8095 174.585 53.1103 174.362 53.3681C174.14 53.622 173.858 53.8193 173.519 53.9599C173.183 54.1005 172.786 54.1708 172.329 54.1708C171.985 54.1708 171.659 54.124 171.351 54.0302C171.046 53.9326 170.772 53.7861 170.53 53.5908C170.292 53.3915 170.097 53.1454 169.944 52.8525C169.796 52.5556 169.702 52.2079 169.663 51.8095H170.694C170.741 52.1298 170.835 52.3994 170.976 52.6181C171.116 52.8369 171.3 53.0029 171.526 53.1161C171.757 53.2255 172.024 53.2802 172.329 53.2802C172.587 53.2802 172.815 53.2353 173.015 53.1454C173.214 53.0556 173.382 52.9267 173.519 52.7587C173.655 52.5908 173.759 52.3876 173.829 52.1494C173.903 51.9111 173.94 51.6435 173.94 51.3466C173.94 51.0771 173.903 50.8271 173.829 50.5966C173.755 50.3661 173.644 50.165 173.495 49.9931C173.351 49.8212 173.173 49.6884 172.962 49.5947C172.751 49.497 172.509 49.4482 172.235 49.4482C171.872 49.4482 171.597 49.497 171.409 49.5947C171.226 49.6923 171.036 49.8251 170.841 49.9931Z" fill="#172755"/>
<rect x="185.708" y="39.6483" width="26.3607" height="20.769" fill="white"/>
<path d="M199.991 45.5107H200.084V46.4306H199.991C199.417 46.4306 198.936 46.5244 198.549 46.7119C198.163 46.8954 197.856 47.1435 197.629 47.456C197.403 47.7646 197.239 48.1122 197.137 48.499C197.04 48.8857 196.991 49.2783 196.991 49.6767V50.9306C196.991 51.3095 197.036 51.6454 197.125 51.9384C197.215 52.2275 197.338 52.4716 197.495 52.6708C197.651 52.8701 197.827 53.0204 198.022 53.122C198.221 53.2236 198.428 53.2744 198.643 53.2744C198.893 53.2744 199.116 53.2275 199.311 53.1337C199.506 53.0361 199.67 52.9013 199.803 52.7294C199.94 52.5536 200.043 52.3466 200.114 52.1083C200.184 51.8701 200.219 51.6083 200.219 51.3232C200.219 51.0693 200.188 50.8251 200.125 50.5908C200.063 50.3525 199.967 50.1415 199.838 49.9579C199.709 49.7704 199.547 49.624 199.352 49.5185C199.161 49.4091 198.932 49.3544 198.667 49.3544C198.366 49.3544 198.084 49.4286 197.823 49.5771C197.565 49.7216 197.352 49.913 197.184 50.1513C197.02 50.3857 196.926 50.6415 196.903 50.9189L196.329 50.913C196.383 50.4755 196.485 50.1025 196.633 49.7939C196.786 49.4814 196.973 49.2275 197.196 49.0322C197.422 48.8329 197.674 48.6884 197.952 48.5986C198.233 48.5048 198.53 48.4579 198.842 48.4579C199.268 48.4579 199.635 48.538 199.944 48.6982C200.252 48.8583 200.506 49.0732 200.706 49.3427C200.905 49.6083 201.051 49.9091 201.145 50.2451C201.243 50.5771 201.292 50.9189 201.292 51.2704C201.292 51.6728 201.235 52.0497 201.122 52.4013C201.008 52.7529 200.838 53.0615 200.612 53.3271C200.389 53.5927 200.114 53.7997 199.786 53.9482C199.458 54.0966 199.077 54.1708 198.643 54.1708C198.182 54.1708 197.78 54.0771 197.436 53.8896C197.092 53.6982 196.807 53.4443 196.581 53.1279C196.354 52.8115 196.184 52.4599 196.071 52.0732C195.958 51.6865 195.901 51.2939 195.901 50.8954V50.3857C195.901 49.7841 195.961 49.1943 196.083 48.6161C196.204 48.038 196.413 47.5146 196.709 47.0458C197.01 46.5771 197.426 46.204 197.958 45.9267C198.489 45.6494 199.167 45.5107 199.991 45.5107Z" fill="#172755"/>
<rect x="27.5444" y="60.4173" width="26.3607" height="20.769" fill="white"/>
<path d="M43.1802 66.2914V66.9008L39.647 74.8226H38.5044L42.0317 67.182H37.4146V66.2914H43.1802Z" fill="#172755"/>
<rect x="53.9053" y="60.4173" width="26.3607" height="20.769" fill="white"/>
<circle cx="66.886" cy="70.6021" r="7.78838" fill="#0088F0"/>
<path d="M69.4062 72.514C69.4062 73.0336 69.2852 73.475 69.043 73.8383C68.8047 74.1976 68.4805 74.4711 68.0703 74.6586C67.6641 74.8461 67.2051 74.9398 66.6934 74.9398C66.1816 74.9398 65.7207 74.8461 65.3105 74.6586C64.9004 74.4711 64.5762 74.1976 64.3379 73.8383C64.0996 73.475 63.9805 73.0336 63.9805 72.514C63.9805 72.1742 64.0449 71.8636 64.1738 71.5824C64.3066 71.2972 64.4922 71.0492 64.7305 70.8383C64.9727 70.6273 65.2578 70.4652 65.5859 70.3519C65.918 70.2347 66.2832 70.1761 66.6816 70.1761C67.2051 70.1761 67.6719 70.2777 68.082 70.4808C68.4922 70.6801 68.8145 70.9554 69.0488 71.307C69.2871 71.6586 69.4062 72.0609 69.4062 72.514ZM68.3164 72.4906C68.3164 72.1742 68.248 71.8949 68.1113 71.6527C67.9746 71.4066 67.7832 71.2152 67.5371 71.0785C67.291 70.9418 67.0059 70.8734 66.6816 70.8734C66.3496 70.8734 66.0625 70.9418 65.8203 71.0785C65.582 71.2152 65.3965 71.4066 65.2637 71.6527C65.1309 71.8949 65.0645 72.1742 65.0645 72.4906C65.0645 72.8187 65.1289 73.1 65.2578 73.3344C65.3906 73.5648 65.5781 73.7426 65.8203 73.8676C66.0664 73.9886 66.3574 74.0492 66.6934 74.0492C67.0293 74.0492 67.3184 73.9886 67.5605 73.8676C67.8027 73.7426 67.9883 73.5648 68.1172 73.3344C68.25 73.1 68.3164 72.8187 68.3164 72.4906ZM69.207 68.5121C69.207 68.9261 69.0977 69.2992 68.8789 69.6312C68.6602 69.9633 68.3613 70.225 67.9824 70.4164C67.6035 70.6078 67.1738 70.7035 66.6934 70.7035C66.2051 70.7035 65.7695 70.6078 65.3867 70.4164C65.0078 70.225 64.7109 69.9633 64.4961 69.6312C64.2812 69.2992 64.1738 68.9261 64.1738 68.5121C64.1738 68.016 64.2812 67.5941 64.4961 67.2465C64.7148 66.8988 65.0137 66.6332 65.3926 66.4496C65.7715 66.266 66.2031 66.1742 66.6875 66.1742C67.1758 66.1742 67.6094 66.266 67.9883 66.4496C68.3672 66.6332 68.6641 66.8988 68.8789 67.2465C69.0977 67.5941 69.207 68.016 69.207 68.5121ZM68.123 68.5297C68.123 68.2445 68.0625 67.9926 67.9414 67.7738C67.8203 67.5551 67.6523 67.3832 67.4375 67.2582C67.2227 67.1293 66.9727 67.0648 66.6875 67.0648C66.4023 67.0648 66.1523 67.1254 65.9375 67.2465C65.7266 67.3636 65.5605 67.5316 65.4395 67.7504C65.3223 67.9691 65.2637 68.2289 65.2637 68.5297C65.2637 68.8226 65.3223 69.0785 65.4395 69.2972C65.5605 69.516 65.7285 69.6859 65.9434 69.807C66.1582 69.9281 66.4082 69.9886 66.6934 69.9886C66.9785 69.9886 67.2266 69.9281 67.4375 69.807C67.6523 69.6859 67.8203 69.516 67.9414 69.2972C68.0625 69.0785 68.123 68.8226 68.123 68.5297Z" fill="#EEEEF7"/>
<rect x="80.2656" y="60.4173" width="26.3607" height="20.769" fill="white"/>
<circle cx="93.2464" cy="70.6021" r="7.78838" fill="#0088F0"/>
<path d="M91.4658 73.9144H91.5771C92.2021 73.9144 92.71 73.8265 93.1006 73.6508C93.4912 73.475 93.792 73.2386 94.0029 72.9418C94.2139 72.6449 94.3584 72.3109 94.4365 71.9398C94.5146 71.5648 94.5537 71.1801 94.5537 70.7855V69.4789C94.5537 69.0922 94.5088 68.7484 94.4189 68.4476C94.333 68.1469 94.2119 67.8949 94.0557 67.6918C93.9033 67.4886 93.7295 67.3344 93.5342 67.2289C93.3389 67.1234 93.1318 67.0707 92.9131 67.0707C92.6631 67.0707 92.4385 67.1215 92.2393 67.223C92.0439 67.3207 91.8779 67.4594 91.7412 67.639C91.6084 67.8187 91.5068 68.0297 91.4365 68.2719C91.3662 68.514 91.3311 68.7777 91.3311 69.0629C91.3311 69.3168 91.3623 69.5629 91.4248 69.8011C91.4873 70.0394 91.583 70.2543 91.7119 70.4457C91.8408 70.6371 92.001 70.7894 92.1924 70.9027C92.3877 71.0121 92.6162 71.0668 92.8779 71.0668C93.1201 71.0668 93.3467 71.0199 93.5576 70.9261C93.7725 70.8285 93.9619 70.6976 94.126 70.5336C94.2939 70.3656 94.4268 70.1761 94.5244 69.9652C94.626 69.7543 94.6846 69.5336 94.7002 69.3031H95.2158C95.2158 69.6273 95.1514 69.9476 95.0225 70.264C94.8975 70.5765 94.7217 70.8617 94.4951 71.1195C94.2686 71.3773 94.0029 71.5844 93.6982 71.7406C93.3936 71.8929 93.0615 71.9691 92.7021 71.9691C92.2803 71.9691 91.915 71.8871 91.6064 71.723C91.2979 71.559 91.0439 71.3402 90.8447 71.0668C90.6494 70.7933 90.5029 70.4886 90.4053 70.1527C90.3115 69.8129 90.2646 69.4691 90.2646 69.1215C90.2646 68.7152 90.3213 68.3344 90.4346 67.9789C90.5479 67.6234 90.7158 67.3109 90.9385 67.0414C91.1611 66.7679 91.4365 66.5551 91.7646 66.4027C92.0967 66.2504 92.4795 66.1742 92.9131 66.1742C93.4014 66.1742 93.8174 66.2719 94.1611 66.4672C94.5049 66.6625 94.7842 66.9242 94.999 67.2523C95.2178 67.5804 95.3779 67.9496 95.4795 68.3597C95.5811 68.7699 95.6318 69.1918 95.6318 69.6254V70.0179C95.6318 70.4594 95.6025 70.9086 95.5439 71.3656C95.4893 71.8187 95.3818 72.2523 95.2217 72.6664C95.0654 73.0804 94.8369 73.4515 94.5361 73.7797C94.2354 74.1039 93.8428 74.3617 93.3584 74.5531C92.8779 74.7406 92.2842 74.8344 91.5771 74.8344H91.4658V73.9144Z" fill="#EEEEF7"/>
<rect x="106.626" y="60.4173" width="26.3607" height="20.769" fill="white"/>
<circle cx="119.607" cy="70.6021" r="7.78838" fill="#0088F0"/>
<path d="M116.436 66.2445V74.8226H115.352V67.598L113.167 68.3949V67.4164L116.266 66.2445H116.436ZM124.979 69.8773V71.1781C124.979 71.8773 124.917 72.4672 124.792 72.9476C124.667 73.4281 124.487 73.8148 124.252 74.1078C124.018 74.4008 123.735 74.6136 123.403 74.7465C123.075 74.8754 122.704 74.9398 122.29 74.9398C121.961 74.9398 121.659 74.8988 121.381 74.8168C121.104 74.7347 120.854 74.6039 120.631 74.4242C120.413 74.2406 120.225 74.0023 120.069 73.7094C119.913 73.4164 119.793 73.0609 119.711 72.6429C119.629 72.225 119.588 71.7367 119.588 71.1781V69.8773C119.588 69.1781 119.651 68.5922 119.776 68.1195C119.905 67.6469 120.086 67.2679 120.321 66.9828C120.555 66.6937 120.836 66.4867 121.165 66.3617C121.497 66.2367 121.868 66.1742 122.278 66.1742C122.61 66.1742 122.915 66.2152 123.192 66.2972C123.473 66.3754 123.723 66.5023 123.942 66.6781C124.161 66.85 124.346 67.0804 124.499 67.3695C124.655 67.6547 124.774 68.0043 124.856 68.4183C124.938 68.8324 124.979 69.3187 124.979 69.8773ZM123.889 71.3539V69.6957C123.889 69.3129 123.866 68.9769 123.819 68.6879C123.776 68.3949 123.711 68.1449 123.625 67.9379C123.54 67.7308 123.43 67.5629 123.297 67.434C123.168 67.3051 123.018 67.2113 122.846 67.1527C122.678 67.0902 122.489 67.059 122.278 67.059C122.02 67.059 121.792 67.1078 121.592 67.2054C121.393 67.2992 121.225 67.4496 121.088 67.6566C120.956 67.8636 120.854 68.1351 120.784 68.4711C120.713 68.807 120.678 69.2152 120.678 69.6957V71.3539C120.678 71.7367 120.7 72.0746 120.743 72.3676C120.79 72.6605 120.858 72.9144 120.948 73.1293C121.038 73.3402 121.147 73.514 121.276 73.6508C121.405 73.7875 121.553 73.889 121.721 73.9554C121.893 74.0179 122.083 74.0492 122.29 74.0492C122.555 74.0492 122.788 73.9984 122.987 73.8969C123.186 73.7953 123.352 73.6371 123.485 73.4222C123.622 73.2035 123.723 72.9242 123.79 72.5844C123.856 72.2406 123.889 71.8304 123.889 71.3539Z" fill="#EEEEF7"/>
<rect x="132.987" y="60.4173" width="26.3607" height="20.769" fill="white"/>
<path d="M142.796 66.2445V74.8226H141.712V67.598L139.527 68.3949V67.4164L142.626 66.2445H142.796ZM149.546 66.2445V74.8226H148.462V67.598L146.277 68.3949V67.4164L149.376 66.2445H149.546Z" fill="#172755"/>
<rect x="159.348" y="60.4173" width="26.3607" height="20.769" fill="white"/>
<path d="M169.157 66.2445V74.8226H168.073V67.598L165.888 68.3949V67.4164L168.987 66.2445H169.157ZM177.935 73.932V74.8226H172.351V74.0433L175.146 70.932C175.489 70.5492 175.755 70.225 175.942 69.9594C176.134 69.6898 176.267 69.4496 176.341 69.2386C176.419 69.0238 176.458 68.8051 176.458 68.5824C176.458 68.3011 176.399 68.0472 176.282 67.8207C176.169 67.5902 176.001 67.4066 175.778 67.2699C175.556 67.1332 175.286 67.0648 174.97 67.0648C174.591 67.0648 174.274 67.139 174.021 67.2875C173.771 67.432 173.583 67.6351 173.458 67.8969C173.333 68.1586 173.271 68.4594 173.271 68.7992H172.187C172.187 68.3187 172.292 67.8793 172.503 67.4808C172.714 67.0824 173.026 66.766 173.44 66.5316C173.854 66.2933 174.364 66.1742 174.97 66.1742C175.509 66.1742 175.97 66.2699 176.353 66.4613C176.735 66.6488 177.028 66.9144 177.231 67.2582C177.438 67.598 177.542 67.9965 177.542 68.4535C177.542 68.7035 177.499 68.9574 177.413 69.2152C177.331 69.4691 177.216 69.723 177.067 69.9769C176.923 70.2308 176.753 70.4808 176.558 70.7269C176.366 70.973 176.161 71.2152 175.942 71.4535L173.657 73.932H177.935Z" fill="#172755"/>
<rect x="185.708" y="60.4173" width="26.3607" height="20.769" fill="white"/>
<path d="M195.518 66.2445V74.8226H194.434V67.598L192.249 68.3949V67.4164L195.348 66.2445H195.518ZM200.288 70.0238H201.061C201.44 70.0238 201.752 69.9613 201.999 69.8363C202.249 69.7074 202.434 69.5336 202.555 69.3148C202.68 69.0922 202.743 68.8422 202.743 68.5648C202.743 68.2367 202.688 67.9613 202.579 67.7386C202.469 67.516 202.305 67.348 202.086 67.2347C201.868 67.1215 201.59 67.0648 201.254 67.0648C200.95 67.0648 200.68 67.1254 200.446 67.2465C200.215 67.3636 200.034 67.5316 199.901 67.7504C199.772 67.9691 199.708 68.2269 199.708 68.5238H198.624C198.624 68.0902 198.733 67.6957 198.952 67.3402C199.17 66.9847 199.477 66.7015 199.872 66.4906C200.27 66.2797 200.731 66.1742 201.254 66.1742C201.77 66.1742 202.221 66.266 202.608 66.4496C202.995 66.6293 203.295 66.8988 203.51 67.2582C203.725 67.6136 203.833 68.057 203.833 68.5883C203.833 68.8031 203.782 69.0336 203.68 69.2797C203.583 69.5219 203.428 69.7484 203.217 69.9594C203.01 70.1703 202.741 70.3441 202.409 70.4808C202.077 70.6136 201.678 70.6801 201.213 70.6801H200.288V70.0238ZM200.288 70.9144V70.264H201.213C201.756 70.264 202.206 70.3285 202.561 70.4574C202.917 70.5863 203.196 70.7582 203.399 70.973C203.606 71.1879 203.75 71.4242 203.833 71.682C203.918 71.9359 203.961 72.1898 203.961 72.4437C203.961 72.8422 203.893 73.1957 203.756 73.5043C203.624 73.8129 203.434 74.0746 203.188 74.2894C202.946 74.5043 202.661 74.6664 202.333 74.7758C202.004 74.8851 201.647 74.9398 201.26 74.9398C200.889 74.9398 200.54 74.8871 200.211 74.7816C199.887 74.6761 199.6 74.5238 199.35 74.3246C199.1 74.1215 198.905 73.8734 198.764 73.5804C198.624 73.2836 198.553 72.9457 198.553 72.5668H199.637C199.637 72.8636 199.702 73.1234 199.831 73.3461C199.963 73.5687 200.151 73.7426 200.393 73.8676C200.639 73.9886 200.928 74.0492 201.26 74.0492C201.592 74.0492 201.877 73.9926 202.116 73.8793C202.358 73.7621 202.543 73.5863 202.672 73.3519C202.805 73.1176 202.872 72.8226 202.872 72.4672C202.872 72.1117 202.797 71.8207 202.649 71.5941C202.5 71.3636 202.29 71.1937 202.016 71.0844C201.747 70.9711 201.428 70.9144 201.061 70.9144H200.288Z" fill="#172755"/>
<rect x="27.5444" y="81.1863" width="26.3607" height="20.769" fill="white"/>
<path d="M37.354 87.0135V95.5917H36.27V88.3671L34.0845 89.1639V88.1854L37.1841 87.0135H37.354ZM46.3071 92.7206V93.6112H40.1431V92.9725L43.9634 87.0604H44.8481L43.8989 88.7714L41.3735 92.7206H46.3071ZM45.1177 87.0604V95.5917H44.0337V87.0604H45.1177Z" fill="#172755"/>
<rect x="53.9053" y="81.1863" width="26.3607" height="20.769" fill="white"/>
<path d="M63.7148 87.0135V95.5917H62.6309V88.3671L60.4453 89.1639V88.1854L63.5449 87.0135H63.7148ZM68.2734 91.5311L67.4062 91.3085L67.834 87.0604H72.2109V88.0624H68.7539L68.4961 90.3827C68.6523 90.2928 68.8496 90.2089 69.0879 90.1307C69.3301 90.0526 69.6074 90.0135 69.9199 90.0135C70.3145 90.0135 70.668 90.0819 70.9805 90.2186C71.293 90.3514 71.5586 90.5428 71.7773 90.7928C72 91.0428 72.1699 91.3436 72.2871 91.6952C72.4043 92.0468 72.4629 92.4393 72.4629 92.8729C72.4629 93.2831 72.4062 93.66 72.293 94.0038C72.1836 94.3475 72.0176 94.6483 71.7949 94.9061C71.5723 95.16 71.291 95.3573 70.9512 95.4979C70.6152 95.6385 70.2188 95.7089 69.7617 95.7089C69.418 95.7089 69.0918 95.662 68.7832 95.5682C68.4785 95.4706 68.2051 95.3241 67.9629 95.1288C67.7246 94.9296 67.5293 94.6835 67.377 94.3905C67.2285 94.0936 67.1348 93.746 67.0957 93.3475H68.127C68.1738 93.6678 68.2676 93.9374 68.4082 94.1561C68.5488 94.3749 68.7324 94.5409 68.959 94.6542C69.1895 94.7635 69.457 94.8182 69.7617 94.8182C70.0195 94.8182 70.248 94.7733 70.4473 94.6835C70.6465 94.5936 70.8145 94.4647 70.9512 94.2968C71.0879 94.1288 71.1914 93.9257 71.2617 93.6874C71.3359 93.4491 71.373 93.1815 71.373 92.8846C71.373 92.6151 71.3359 92.3651 71.2617 92.1346C71.1875 91.9042 71.0762 91.703 70.9277 91.5311C70.7832 91.3593 70.6055 91.2264 70.3945 91.1327C70.1836 91.035 69.9414 90.9862 69.668 90.9862C69.3047 90.9862 69.0293 91.035 68.8418 91.1327C68.6582 91.2303 68.4688 91.3632 68.2734 91.5311Z" fill="#172755"/>
<rect x="80.2656" y="81.1863" width="26.3607" height="20.769" fill="white"/>
<path d="M90.0752 87.0135V95.5917H88.9912V88.3671L86.8057 89.1639V88.1854L89.9053 87.0135H90.0752ZM97.4229 87.0487H97.5166V87.9686H97.4229C96.8486 87.9686 96.3682 88.0624 95.9814 88.2499C95.5947 88.4335 95.2881 88.6815 95.0615 88.994C94.835 89.3026 94.6709 89.6503 94.5693 90.037C94.4717 90.4237 94.4229 90.8163 94.4229 91.2147V92.4686C94.4229 92.8475 94.4678 93.1835 94.5576 93.4764C94.6475 93.7655 94.7705 94.0096 94.9268 94.2089C95.083 94.4081 95.2588 94.5585 95.4541 94.66C95.6533 94.7616 95.8604 94.8124 96.0752 94.8124C96.3252 94.8124 96.5479 94.7655 96.7432 94.6718C96.9385 94.5741 97.1025 94.4393 97.2354 94.2675C97.3721 94.0917 97.4756 93.8846 97.5459 93.6464C97.6162 93.4081 97.6514 93.1464 97.6514 92.8612C97.6514 92.6073 97.6201 92.3632 97.5576 92.1288C97.4951 91.8905 97.3994 91.6796 97.2705 91.496C97.1416 91.3085 96.9795 91.162 96.7842 91.0565C96.5928 90.9471 96.3643 90.8925 96.0986 90.8925C95.7979 90.8925 95.5166 90.9667 95.2549 91.1151C94.9971 91.2596 94.7842 91.451 94.6162 91.6893C94.4521 91.9237 94.3584 92.1796 94.335 92.4569L93.7607 92.451C93.8154 92.0135 93.917 91.6405 94.0654 91.3319C94.2178 91.0194 94.4053 90.7655 94.6279 90.5702C94.8545 90.371 95.1064 90.2264 95.3838 90.1366C95.665 90.0428 95.9619 89.996 96.2744 89.996C96.7002 89.996 97.0674 90.076 97.376 90.2362C97.6846 90.3964 97.9385 90.6112 98.1377 90.8807C98.3369 91.1464 98.4834 91.4471 98.5771 91.7831C98.6748 92.1151 98.7236 92.4569 98.7236 92.8085C98.7236 93.2108 98.667 93.5878 98.5537 93.9393C98.4404 94.2909 98.2705 94.5995 98.0439 94.8651C97.8213 95.1307 97.5459 95.3378 97.2178 95.4862C96.8896 95.6346 96.5088 95.7089 96.0752 95.7089C95.6143 95.7089 95.2119 95.6151 94.8682 95.4276C94.5244 95.2362 94.2393 94.9823 94.0127 94.6659C93.7861 94.3495 93.6162 93.9979 93.5029 93.6112C93.3896 93.2245 93.333 92.8319 93.333 92.4335V91.9237C93.333 91.3221 93.3936 90.7323 93.5146 90.1542C93.6357 89.576 93.8447 89.0526 94.1416 88.5839C94.4424 88.1151 94.8584 87.7421 95.3896 87.4647C95.9209 87.1874 96.5986 87.0487 97.4229 87.0487Z" fill="#172755"/>
<rect x="106.626" y="81.1863" width="26.3607" height="20.769" fill="white"/>
<path d="M116.436 87.0135V95.5917H115.352V88.3671L113.167 89.1639V88.1854L116.266 87.0135H116.436ZM125.137 87.0604V87.6698L121.604 95.5917H120.461L123.989 87.951H119.372V87.0604H125.137Z" fill="#172755"/>
<rect x="132.987" y="81.1863" width="26.3607" height="20.769" fill="white"/>
<circle cx="145.968" cy="91.3711" r="7.78838" fill="#EF2A82"/>
<path d="M142.796 87.0135V95.5917H141.712V88.3671L139.527 89.1639V88.1854L142.626 87.0135H142.796ZM151.363 93.2831C151.363 93.8026 151.242 94.244 151 94.6073C150.761 94.9667 150.437 95.2401 150.027 95.4276C149.621 95.6151 149.162 95.7089 148.65 95.7089C148.138 95.7089 147.677 95.6151 147.267 95.4276C146.857 95.2401 146.533 94.9667 146.294 94.6073C146.056 94.244 145.937 93.8026 145.937 93.2831C145.937 92.9432 146.001 92.6327 146.13 92.3514C146.263 92.0663 146.449 91.8182 146.687 91.6073C146.929 91.3964 147.214 91.2343 147.542 91.121C147.875 91.0038 148.24 90.9452 148.638 90.9452C149.162 90.9452 149.628 91.0468 150.039 91.2499C150.449 91.4491 150.771 91.7245 151.005 92.076C151.244 92.4276 151.363 92.83 151.363 93.2831ZM150.273 93.2596C150.273 92.9432 150.205 92.6639 150.068 92.4218C149.931 92.1757 149.74 91.9843 149.494 91.8475C149.248 91.7108 148.962 91.6425 148.638 91.6425C148.306 91.6425 148.019 91.7108 147.777 91.8475C147.539 91.9843 147.353 92.1757 147.22 92.4218C147.087 92.6639 147.021 92.9432 147.021 93.2596C147.021 93.5878 147.085 93.869 147.214 94.1034C147.347 94.3339 147.535 94.5116 147.777 94.6366C148.023 94.7577 148.314 94.8182 148.65 94.8182C148.986 94.8182 149.275 94.7577 149.517 94.6366C149.759 94.5116 149.945 94.3339 150.074 94.1034C150.207 93.869 150.273 93.5878 150.273 93.2596ZM151.164 89.2811C151.164 89.6952 151.054 90.0682 150.835 90.4003C150.617 90.7323 150.318 90.994 149.939 91.1854C149.56 91.3768 149.13 91.4725 148.65 91.4725C148.162 91.4725 147.726 91.3768 147.343 91.1854C146.964 90.994 146.667 90.7323 146.453 90.4003C146.238 90.0682 146.13 89.6952 146.13 89.2811C146.13 88.785 146.238 88.3632 146.453 88.0155C146.671 87.6678 146.97 87.4022 147.349 87.2186C147.728 87.035 148.16 86.9432 148.644 86.9432C149.132 86.9432 149.566 87.035 149.945 87.2186C150.324 87.4022 150.621 87.6678 150.835 88.0155C151.054 88.3632 151.164 88.785 151.164 89.2811ZM150.08 89.2987C150.08 89.0135 150.019 88.7616 149.898 88.5428C149.777 88.3241 149.609 88.1522 149.394 88.0272C149.179 87.8983 148.929 87.8339 148.644 87.8339C148.359 87.8339 148.109 87.8944 147.894 88.0155C147.683 88.1327 147.517 88.3007 147.396 88.5194C147.279 88.7382 147.22 88.9979 147.22 89.2987C147.22 89.5917 147.279 89.8475 147.396 90.0663C147.517 90.285 147.685 90.455 147.9 90.576C148.115 90.6971 148.365 90.7577 148.65 90.7577C148.935 90.7577 149.183 90.6971 149.394 90.576C149.609 90.455 149.777 90.285 149.898 90.0663C150.019 89.8475 150.08 89.5917 150.08 89.2987Z" fill="#EEEEF7"/>
<rect x="159.348" y="81.1863" width="26.3607" height="20.769" fill="white"/>
<path d="M169.157 87.0135V95.5917H168.073V88.3671L165.888 89.1639V88.1854L168.987 87.0135H169.157ZM173.423 94.6835H173.534C174.159 94.6835 174.667 94.5956 175.058 94.4198C175.448 94.244 175.749 94.0077 175.96 93.7108C176.171 93.4139 176.315 93.08 176.394 92.7089C176.472 92.3339 176.511 91.9491 176.511 91.5546V90.2479C176.511 89.8612 176.466 89.5175 176.376 89.2167C176.29 88.9159 176.169 88.6639 176.013 88.4608C175.86 88.2577 175.687 88.1034 175.491 87.9979C175.296 87.8925 175.089 87.8397 174.87 87.8397C174.62 87.8397 174.396 87.8905 174.196 87.9921C174.001 88.0897 173.835 88.2284 173.698 88.4081C173.565 88.5878 173.464 88.7987 173.394 89.0409C173.323 89.2831 173.288 89.5468 173.288 89.8319C173.288 90.0858 173.319 90.3319 173.382 90.5702C173.444 90.8085 173.54 91.0233 173.669 91.2147C173.798 91.4061 173.958 91.5585 174.149 91.6718C174.345 91.7811 174.573 91.8358 174.835 91.8358C175.077 91.8358 175.304 91.7889 175.515 91.6952C175.729 91.5975 175.919 91.4667 176.083 91.3026C176.251 91.1346 176.384 90.9452 176.481 90.7343C176.583 90.5233 176.642 90.3026 176.657 90.0721H177.173C177.173 90.3964 177.108 90.7167 176.979 91.0331C176.854 91.3456 176.679 91.6307 176.452 91.8885C176.226 92.1464 175.96 92.3534 175.655 92.5096C175.351 92.662 175.019 92.7382 174.659 92.7382C174.237 92.7382 173.872 92.6561 173.563 92.4921C173.255 92.328 173.001 92.1093 172.802 91.8358C172.606 91.5624 172.46 91.2577 172.362 90.9218C172.269 90.5819 172.222 90.2382 172.222 89.8905C172.222 89.4843 172.278 89.1034 172.392 88.7479C172.505 88.3925 172.673 88.08 172.896 87.8104C173.118 87.537 173.394 87.3241 173.722 87.1718C174.054 87.0194 174.437 86.9432 174.87 86.9432C175.358 86.9432 175.774 87.0409 176.118 87.2362C176.462 87.4315 176.741 87.6932 176.956 88.0214C177.175 88.3495 177.335 88.7186 177.437 89.1288C177.538 89.5389 177.589 89.9608 177.589 90.3944V90.787C177.589 91.2284 177.56 91.6776 177.501 92.1346C177.446 92.5878 177.339 93.0214 177.179 93.4354C177.022 93.8495 176.794 94.2206 176.493 94.5487C176.192 94.8729 175.8 95.1307 175.315 95.3221C174.835 95.5096 174.241 95.6034 173.534 95.6034H173.423V94.6835Z" fill="#172755"/>
<rect x="185.708" y="81.1863" width="26.3607" height="20.769" fill="white"/>
<path d="M197.545 94.701V95.5917H191.961V94.8124L194.756 91.701C195.1 91.3182 195.366 90.994 195.553 90.7284C195.745 90.4589 195.877 90.2186 195.952 90.0077C196.03 89.7928 196.069 89.5741 196.069 89.3514C196.069 89.0702 196.01 88.8163 195.893 88.5897C195.78 88.3593 195.612 88.1757 195.389 88.0389C195.167 87.9022 194.897 87.8339 194.581 87.8339C194.202 87.8339 193.885 87.9081 193.631 88.0565C193.381 88.201 193.194 88.4042 193.069 88.6659C192.944 88.9276 192.881 89.2284 192.881 89.5682H191.797C191.797 89.0878 191.903 88.6483 192.114 88.2499C192.325 87.8514 192.637 87.535 193.051 87.3007C193.465 87.0624 193.975 86.9432 194.581 86.9432C195.12 86.9432 195.581 87.0389 195.963 87.2303C196.346 87.4178 196.639 87.6835 196.842 88.0272C197.049 88.3671 197.153 88.7655 197.153 89.2225C197.153 89.4725 197.11 89.7264 197.024 89.9843C196.942 90.2382 196.827 90.4921 196.678 90.746C196.534 90.9999 196.364 91.2499 196.168 91.496C195.977 91.7421 195.772 91.9843 195.553 92.2225L193.268 94.701H197.545ZM204.061 90.6464V91.9471C204.061 92.6464 203.999 93.2362 203.874 93.7167C203.749 94.1971 203.569 94.5839 203.334 94.8768C203.1 95.1698 202.817 95.3827 202.485 95.5155C202.157 95.6444 201.786 95.7089 201.372 95.7089C201.043 95.7089 200.741 95.6678 200.463 95.5858C200.186 95.5038 199.936 95.3729 199.713 95.1932C199.495 95.0096 199.307 94.7714 199.151 94.4784C198.995 94.1854 198.875 93.83 198.793 93.412C198.711 92.994 198.67 92.5057 198.67 91.9471V90.6464C198.67 89.9471 198.733 89.3612 198.858 88.8885C198.987 88.4159 199.168 88.037 199.403 87.7518C199.637 87.4628 199.918 87.2557 200.247 87.1307C200.579 87.0057 200.95 86.9432 201.36 86.9432C201.692 86.9432 201.997 86.9843 202.274 87.0663C202.555 87.1444 202.805 87.2714 203.024 87.4471C203.243 87.619 203.428 87.8495 203.581 88.1385C203.737 88.4237 203.856 88.7733 203.938 89.1874C204.02 89.6014 204.061 90.0878 204.061 90.6464ZM202.971 92.1229V90.4647C202.971 90.0819 202.948 89.746 202.901 89.4569C202.858 89.1639 202.793 88.9139 202.708 88.7069C202.622 88.4999 202.512 88.3319 202.379 88.203C202.25 88.0741 202.1 87.9803 201.928 87.9218C201.76 87.8593 201.571 87.828 201.36 87.828C201.102 87.828 200.874 87.8768 200.674 87.9745C200.475 88.0682 200.307 88.2186 200.17 88.4257C200.038 88.6327 199.936 88.9042 199.866 89.2401C199.795 89.576 199.76 89.9843 199.76 90.4647V92.1229C199.76 92.5057 199.782 92.8436 199.825 93.1366C199.872 93.4296 199.94 93.6835 200.03 93.8983C200.12 94.1093 200.229 94.2831 200.358 94.4198C200.487 94.5565 200.635 94.6581 200.803 94.7245C200.975 94.787 201.165 94.8182 201.372 94.8182C201.637 94.8182 201.87 94.7675 202.069 94.6659C202.268 94.5643 202.434 94.4061 202.567 94.1913C202.704 93.9725 202.805 93.6932 202.872 93.3534C202.938 93.0096 202.971 92.5995 202.971 92.1229Z" fill="#172755"/>
<rect x="27.5444" y="101.955" width="26.3607" height="20.769" fill="white"/>
<path d="M39.3813 115.47V116.361H33.7974V115.581L36.5923 112.47C36.936 112.087 37.2017 111.763 37.3892 111.497C37.5806 111.228 37.7134 110.988 37.7876 110.777C37.8657 110.562 37.9048 110.343 37.9048 110.12C37.9048 109.839 37.8462 109.585 37.729 109.359C37.6157 109.128 37.4478 108.945 37.2251 108.808C37.0024 108.671 36.7329 108.603 36.4165 108.603C36.0376 108.603 35.7212 108.677 35.4673 108.826C35.2173 108.97 35.0298 109.173 34.9048 109.435C34.7798 109.697 34.7173 109.997 34.7173 110.337H33.6333C33.6333 109.857 33.7388 109.417 33.9497 109.019C34.1606 108.62 34.4731 108.304 34.8872 108.07C35.3013 107.831 35.811 107.712 36.4165 107.712C36.9556 107.712 37.4165 107.808 37.7993 107.999C38.1821 108.187 38.4751 108.452 38.6782 108.796C38.8853 109.136 38.9888 109.534 38.9888 109.992C38.9888 110.242 38.9458 110.495 38.8599 110.753C38.7778 111.007 38.6626 111.261 38.5142 111.515C38.3696 111.769 38.1997 112.019 38.0044 112.265C37.813 112.511 37.6079 112.753 37.3892 112.992L35.104 115.47H39.3813ZM44.104 107.783V116.361H43.02V109.136L40.8345 109.933V108.954L43.9341 107.783H44.104Z" fill="#172755"/>
<rect x="53.9053" y="101.955" width="26.3607" height="20.769" fill="white"/>
<path d="M65.7422 115.47V116.361H60.1582V115.581L62.9531 112.47C63.2969 112.087 63.5625 111.763 63.75 111.497C63.9414 111.228 64.0742 110.988 64.1484 110.777C64.2266 110.562 64.2656 110.343 64.2656 110.12C64.2656 109.839 64.207 109.585 64.0898 109.359C63.9766 109.128 63.8086 108.945 63.5859 108.808C63.3633 108.671 63.0938 108.603 62.7773 108.603C62.3984 108.603 62.082 108.677 61.8281 108.826C61.5781 108.97 61.3906 109.173 61.2656 109.435C61.1406 109.697 61.0781 109.997 61.0781 110.337H59.9941C59.9941 109.857 60.0996 109.417 60.3105 109.019C60.5215 108.62 60.834 108.304 61.248 108.07C61.6621 107.831 62.1719 107.712 62.7773 107.712C63.3164 107.712 63.7773 107.808 64.1602 107.999C64.543 108.187 64.8359 108.452 65.0391 108.796C65.2461 109.136 65.3496 109.534 65.3496 109.992C65.3496 110.242 65.3066 110.495 65.2207 110.753C65.1387 111.007 65.0234 111.261 64.875 111.515C64.7305 111.769 64.5605 112.019 64.3652 112.265C64.1738 112.511 63.9688 112.753 63.75 112.992L61.4648 115.47H65.7422ZM72.4922 115.47V116.361H66.9082V115.581L69.7031 112.47C70.0469 112.087 70.3125 111.763 70.5 111.497C70.6914 111.228 70.8242 110.988 70.8984 110.777C70.9766 110.562 71.0156 110.343 71.0156 110.12C71.0156 109.839 70.957 109.585 70.8398 109.359C70.7266 109.128 70.5586 108.945 70.3359 108.808C70.1133 108.671 69.8438 108.603 69.5273 108.603C69.1484 108.603 68.832 108.677 68.5781 108.826C68.3281 108.97 68.1406 109.173 68.0156 109.435C67.8906 109.697 67.8281 109.997 67.8281 110.337H66.7441C66.7441 109.857 66.8496 109.417 67.0605 109.019C67.2715 108.62 67.584 108.304 67.998 108.07C68.4121 107.831 68.9219 107.712 69.5273 107.712C70.0664 107.712 70.5273 107.808 70.9102 107.999C71.293 108.187 71.5859 108.452 71.7891 108.796C71.9961 109.136 72.0996 109.534 72.0996 109.992C72.0996 110.242 72.0566 110.495 71.9707 110.753C71.8887 111.007 71.7734 111.261 71.625 111.515C71.4805 111.769 71.3105 112.019 71.1152 112.265C70.9238 112.511 70.7188 112.753 70.5 112.992L68.2148 115.47H72.4922Z" fill="#172755"/>
<rect x="80.2656" y="101.955" width="26.3607" height="20.769" fill="white"/>
<path d="M92.1025 115.47V116.361H86.5186V115.581L89.3135 112.47C89.6572 112.087 89.9229 111.763 90.1104 111.497C90.3018 111.228 90.4346 110.988 90.5088 110.777C90.5869 110.562 90.626 110.343 90.626 110.12C90.626 109.839 90.5674 109.585 90.4502 109.359C90.3369 109.128 90.1689 108.945 89.9463 108.808C89.7236 108.671 89.4541 108.603 89.1377 108.603C88.7588 108.603 88.4424 108.677 88.1885 108.826C87.9385 108.97 87.751 109.173 87.626 109.435C87.501 109.697 87.4385 109.997 87.4385 110.337H86.3545C86.3545 109.857 86.46 109.417 86.6709 109.019C86.8818 108.62 87.1943 108.304 87.6084 108.07C88.0225 107.831 88.5322 107.712 89.1377 107.712C89.6768 107.712 90.1377 107.808 90.5205 107.999C90.9033 108.187 91.1963 108.452 91.3994 108.796C91.6064 109.136 91.71 109.534 91.71 109.992C91.71 110.242 91.667 110.495 91.5811 110.753C91.499 111.007 91.3838 111.261 91.2354 111.515C91.0908 111.769 90.9209 112.019 90.7256 112.265C90.5342 112.511 90.3291 112.753 90.1104 112.992L87.8252 115.47H92.1025ZM94.8447 111.562H95.6182C95.9971 111.562 96.3096 111.499 96.5557 111.374C96.8057 111.245 96.9912 111.072 97.1123 110.853C97.2373 110.63 97.2998 110.38 97.2998 110.103C97.2998 109.775 97.2451 109.499 97.1357 109.277C97.0264 109.054 96.8623 108.886 96.6436 108.773C96.4248 108.659 96.1475 108.603 95.8115 108.603C95.5068 108.603 95.2373 108.663 95.0029 108.784C94.7725 108.902 94.5908 109.07 94.458 109.288C94.3291 109.507 94.2646 109.765 94.2646 110.062H93.1807C93.1807 109.628 93.29 109.234 93.5088 108.878C93.7275 108.523 94.0342 108.24 94.4287 108.029C94.8271 107.818 95.2881 107.712 95.8115 107.712C96.3271 107.712 96.7783 107.804 97.165 107.988C97.5518 108.167 97.8525 108.437 98.0674 108.796C98.2822 109.152 98.3896 109.595 98.3896 110.126C98.3896 110.341 98.3389 110.572 98.2373 110.818C98.1396 111.06 97.9854 111.286 97.7744 111.497C97.5674 111.708 97.2979 111.882 96.9658 112.019C96.6338 112.152 96.2354 112.218 95.7705 112.218H94.8447V111.562ZM94.8447 112.452V111.802H95.7705C96.3135 111.802 96.7627 111.867 97.1182 111.995C97.4736 112.124 97.7529 112.296 97.9561 112.511C98.1631 112.726 98.3076 112.962 98.3896 113.22C98.4756 113.474 98.5186 113.728 98.5186 113.982C98.5186 114.38 98.4502 114.734 98.3135 115.042C98.1807 115.351 97.9912 115.613 97.7451 115.827C97.5029 116.042 97.2178 116.204 96.8896 116.314C96.5615 116.423 96.2041 116.478 95.8174 116.478C95.4463 116.478 95.0967 116.425 94.7686 116.32C94.4443 116.214 94.1572 116.062 93.9072 115.863C93.6572 115.659 93.4619 115.411 93.3213 115.118C93.1807 114.822 93.1104 114.484 93.1104 114.105H94.1943C94.1943 114.402 94.2588 114.661 94.3877 114.884C94.5205 115.107 94.708 115.281 94.9502 115.406C95.1963 115.527 95.4854 115.587 95.8174 115.587C96.1494 115.587 96.4346 115.531 96.6729 115.417C96.915 115.3 97.1006 115.124 97.2295 114.89C97.3623 114.656 97.4287 114.361 97.4287 114.005C97.4287 113.65 97.3545 113.359 97.2061 113.132C97.0576 112.902 96.8467 112.732 96.5732 112.622C96.3037 112.509 95.9854 112.452 95.6182 112.452H94.8447Z" fill="#172755"/>
<rect x="106.626" y="101.955" width="26.3607" height="20.769" fill="white"/>
<path d="M118.463 115.47V116.361H112.879V115.581L115.674 112.47C116.018 112.087 116.284 111.763 116.471 111.497C116.663 111.228 116.795 110.988 116.87 110.777C116.948 110.562 116.987 110.343 116.987 110.12C116.987 109.839 116.928 109.585 116.811 109.359C116.698 109.128 116.53 108.945 116.307 108.808C116.084 108.671 115.815 108.603 115.499 108.603C115.12 108.603 114.803 108.677 114.549 108.826C114.299 108.97 114.112 109.173 113.987 109.435C113.862 109.697 113.799 109.997 113.799 110.337H112.715C112.715 109.857 112.821 109.417 113.032 109.019C113.243 108.62 113.555 108.304 113.969 108.07C114.383 107.831 114.893 107.712 115.499 107.712C116.038 107.712 116.499 107.808 116.881 107.999C117.264 108.187 117.557 108.452 117.76 108.796C117.967 109.136 118.071 109.534 118.071 109.992C118.071 110.242 118.028 110.495 117.942 110.753C117.86 111.007 117.745 111.261 117.596 111.515C117.452 111.769 117.282 112.019 117.086 112.265C116.895 112.511 116.69 112.753 116.471 112.992L114.186 115.47H118.463ZM125.389 113.49V114.38H119.225V113.742L123.045 107.829H123.93L122.981 109.54L120.456 113.49H125.389ZM124.2 107.829V116.361H123.116V107.829H124.2Z" fill="#172755"/>
<rect x="132.987" y="101.955" width="26.3607" height="20.769" fill="white"/>
<path d="M144.824 115.47V116.361H139.24V115.581L142.035 112.47C142.378 112.087 142.644 111.763 142.832 111.497C143.023 111.228 143.156 110.988 143.23 110.777C143.308 110.562 143.347 110.343 143.347 110.12C143.347 109.839 143.289 109.585 143.171 109.359C143.058 109.128 142.89 108.945 142.667 108.808C142.445 108.671 142.175 108.603 141.859 108.603C141.48 108.603 141.164 108.677 140.91 108.826C140.66 108.97 140.472 109.173 140.347 109.435C140.222 109.697 140.16 109.997 140.16 110.337H139.076C139.076 109.857 139.181 109.417 139.392 109.019C139.603 108.62 139.916 108.304 140.33 108.07C140.744 107.831 141.253 107.712 141.859 107.712C142.398 107.712 142.859 107.808 143.242 107.999C143.625 108.187 143.917 108.452 144.121 108.796C144.328 109.136 144.431 109.534 144.431 109.992C144.431 110.242 144.388 110.495 144.302 110.753C144.22 111.007 144.105 111.261 143.957 111.515C143.812 111.769 143.642 112.019 143.447 112.265C143.255 112.511 143.05 112.753 142.832 112.992L140.546 115.47H144.824ZM147.355 112.3L146.488 112.077L146.916 107.829H151.292V108.831H147.835L147.578 111.152C147.734 111.062 147.931 110.978 148.169 110.9C148.412 110.822 148.689 110.783 149.001 110.783C149.396 110.783 149.75 110.851 150.062 110.988C150.375 111.12 150.64 111.312 150.859 111.562C151.082 111.812 151.251 112.113 151.369 112.464C151.486 112.816 151.544 113.208 151.544 113.642C151.544 114.052 151.488 114.429 151.375 114.773C151.265 115.117 151.099 115.417 150.876 115.675C150.654 115.929 150.373 116.126 150.033 116.267C149.697 116.408 149.3 116.478 148.843 116.478C148.5 116.478 148.173 116.431 147.865 116.337C147.56 116.24 147.287 116.093 147.044 115.898C146.806 115.699 146.611 115.452 146.458 115.159C146.31 114.863 146.216 114.515 146.177 114.117H147.208C147.255 114.437 147.349 114.706 147.49 114.925C147.63 115.144 147.814 115.31 148.041 115.423C148.271 115.533 148.539 115.587 148.843 115.587C149.101 115.587 149.33 115.542 149.529 115.452C149.728 115.363 149.896 115.234 150.033 115.066C150.169 114.898 150.273 114.695 150.343 114.456C150.417 114.218 150.455 113.951 150.455 113.654C150.455 113.384 150.417 113.134 150.343 112.904C150.269 112.673 150.158 112.472 150.009 112.3C149.865 112.128 149.687 111.995 149.476 111.902C149.265 111.804 149.023 111.755 148.75 111.755C148.386 111.755 148.111 111.804 147.923 111.902C147.74 111.999 147.55 112.132 147.355 112.3Z" fill="#172755"/>
<rect x="159.348" y="101.955" width="26.3607" height="20.769" fill="white"/>
<path d="M171.185 115.47V116.361H165.601V115.581L168.396 112.47C168.739 112.087 169.005 111.763 169.192 111.497C169.384 111.228 169.517 110.988 169.591 110.777C169.669 110.562 169.708 110.343 169.708 110.12C169.708 109.839 169.649 109.585 169.532 109.359C169.419 109.128 169.251 108.945 169.028 108.808C168.806 108.671 168.536 108.603 168.22 108.603C167.841 108.603 167.524 108.677 167.271 108.826C167.021 108.97 166.833 109.173 166.708 109.435C166.583 109.697 166.521 109.997 166.521 110.337H165.437C165.437 109.857 165.542 109.417 165.753 109.019C165.964 108.62 166.276 108.304 166.69 108.07C167.104 107.831 167.614 107.712 168.22 107.712C168.759 107.712 169.22 107.808 169.603 107.999C169.985 108.187 170.278 108.452 170.481 108.796C170.688 109.136 170.792 109.534 170.792 109.992C170.792 110.242 170.749 110.495 170.663 110.753C170.581 111.007 170.466 111.261 170.317 111.515C170.173 111.769 170.003 112.019 169.808 112.265C169.616 112.511 169.411 112.753 169.192 112.992L166.907 115.47H171.185ZM176.505 107.818H176.599V108.738H176.505C175.931 108.738 175.45 108.831 175.063 109.019C174.677 109.202 174.37 109.451 174.144 109.763C173.917 110.072 173.753 110.419 173.651 110.806C173.554 111.193 173.505 111.585 173.505 111.984V113.238C173.505 113.617 173.55 113.952 173.64 114.245C173.729 114.534 173.853 114.779 174.009 114.978C174.165 115.177 174.341 115.327 174.536 115.429C174.735 115.531 174.942 115.581 175.157 115.581C175.407 115.581 175.63 115.534 175.825 115.441C176.021 115.343 176.185 115.208 176.317 115.036C176.454 114.861 176.558 114.654 176.628 114.415C176.698 114.177 176.733 113.915 176.733 113.63C176.733 113.376 176.702 113.132 176.64 112.898C176.577 112.659 176.481 112.449 176.353 112.265C176.224 112.077 176.062 111.931 175.866 111.826C175.675 111.716 175.446 111.661 175.181 111.661C174.88 111.661 174.599 111.736 174.337 111.884C174.079 112.029 173.866 112.22 173.698 112.458C173.534 112.693 173.44 112.949 173.417 113.226L172.843 113.22C172.897 112.783 172.999 112.409 173.147 112.101C173.3 111.788 173.487 111.534 173.71 111.339C173.937 111.14 174.188 110.995 174.466 110.906C174.747 110.812 175.044 110.765 175.356 110.765C175.782 110.765 176.149 110.845 176.458 111.005C176.767 111.165 177.021 111.38 177.22 111.65C177.419 111.915 177.565 112.216 177.659 112.552C177.757 112.884 177.806 113.226 177.806 113.577C177.806 113.98 177.749 114.357 177.636 114.708C177.522 115.06 177.353 115.368 177.126 115.634C176.903 115.9 176.628 116.107 176.3 116.255C175.972 116.404 175.591 116.478 175.157 116.478C174.696 116.478 174.294 116.384 173.95 116.197C173.606 116.005 173.321 115.751 173.095 115.435C172.868 115.118 172.698 114.767 172.585 114.38C172.472 113.993 172.415 113.601 172.415 113.202V112.693C172.415 112.091 172.476 111.501 172.597 110.923C172.718 110.345 172.927 109.822 173.224 109.353C173.524 108.884 173.94 108.511 174.472 108.234C175.003 107.956 175.681 107.818 176.505 107.818Z" fill="#172755"/>
<rect x="185.708" y="101.955" width="26.3607" height="20.769" fill="white"/>
<path d="M197.545 115.47V116.361H191.961V115.581L194.756 112.47C195.1 112.087 195.366 111.763 195.553 111.497C195.745 111.228 195.877 110.988 195.952 110.777C196.03 110.562 196.069 110.343 196.069 110.12C196.069 109.839 196.01 109.585 195.893 109.359C195.78 109.128 195.612 108.945 195.389 108.808C195.167 108.671 194.897 108.603 194.581 108.603C194.202 108.603 193.885 108.677 193.631 108.826C193.381 108.97 193.194 109.173 193.069 109.435C192.944 109.697 192.881 109.997 192.881 110.337H191.797C191.797 109.857 191.903 109.417 192.114 109.019C192.325 108.62 192.637 108.304 193.051 108.07C193.465 107.831 193.975 107.712 194.581 107.712C195.12 107.712 195.581 107.808 195.963 107.999C196.346 108.187 196.639 108.452 196.842 108.796C197.049 109.136 197.153 109.534 197.153 109.992C197.153 110.242 197.11 110.495 197.024 110.753C196.942 111.007 196.827 111.261 196.678 111.515C196.534 111.769 196.364 112.019 196.168 112.265C195.977 112.511 195.772 112.753 195.553 112.992L193.268 115.47H197.545ZM204.219 107.829V108.439L200.686 116.361H199.543L203.071 108.72H198.454V107.829H204.219Z" fill="#172755"/>
<rect x="27.5444" y="122.724" width="26.3607" height="20.769" fill="white"/>
<path d="M39.3813 136.239V137.13H33.7974V136.35L36.5923 133.239C36.936 132.856 37.2017 132.532 37.3892 132.266C37.5806 131.997 37.7134 131.757 37.7876 131.546C37.8657 131.331 37.9048 131.112 37.9048 130.889C37.9048 130.608 37.8462 130.354 37.729 130.128C37.6157 129.897 37.4478 129.714 37.2251 129.577C37.0024 129.44 36.7329 129.372 36.4165 129.372C36.0376 129.372 35.7212 129.446 35.4673 129.594C35.2173 129.739 35.0298 129.942 34.9048 130.204C34.7798 130.466 34.7173 130.766 34.7173 131.106H33.6333C33.6333 130.626 33.7388 130.186 33.9497 129.788C34.1606 129.389 34.4731 129.073 34.8872 128.839C35.3013 128.6 35.811 128.481 36.4165 128.481C36.9556 128.481 37.4165 128.577 37.7993 128.768C38.1821 128.956 38.4751 129.221 38.6782 129.565C38.8853 129.905 38.9888 130.303 38.9888 130.76C38.9888 131.01 38.9458 131.264 38.8599 131.522C38.7778 131.776 38.6626 132.03 38.5142 132.284C38.3696 132.538 38.1997 132.788 38.0044 133.034C37.813 133.28 37.6079 133.522 37.3892 133.76L35.104 136.239H39.3813ZM45.9204 134.821C45.9204 135.341 45.7993 135.782 45.5571 136.145C45.3188 136.505 44.9946 136.778 44.5845 136.966C44.1782 137.153 43.7192 137.247 43.2075 137.247C42.6958 137.247 42.2349 137.153 41.8247 136.966C41.4146 136.778 41.0903 136.505 40.8521 136.145C40.6138 135.782 40.4946 135.341 40.4946 134.821C40.4946 134.481 40.5591 134.171 40.688 133.889C40.8208 133.604 41.0063 133.356 41.2446 133.145C41.4868 132.934 41.772 132.772 42.1001 132.659C42.4321 132.542 42.7974 132.483 43.1958 132.483C43.7192 132.483 44.186 132.585 44.5962 132.788C45.0063 132.987 45.3286 133.262 45.563 133.614C45.8013 133.966 45.9204 134.368 45.9204 134.821ZM44.8306 134.798C44.8306 134.481 44.7622 134.202 44.6255 133.96C44.4888 133.714 44.2974 133.522 44.0513 133.385C43.8052 133.249 43.52 133.18 43.1958 133.18C42.8638 133.18 42.5767 133.249 42.3345 133.385C42.0962 133.522 41.9106 133.714 41.7778 133.96C41.645 134.202 41.5786 134.481 41.5786 134.798C41.5786 135.126 41.6431 135.407 41.772 135.641C41.9048 135.872 42.0923 136.05 42.3345 136.175C42.5806 136.296 42.8716 136.356 43.2075 136.356C43.5435 136.356 43.8325 136.296 44.0747 136.175C44.3169 136.05 44.5024 135.872 44.6313 135.641C44.7642 135.407 44.8306 135.126 44.8306 134.798ZM45.7212 130.819C45.7212 131.233 45.6118 131.606 45.3931 131.938C45.1743 132.27 44.8755 132.532 44.4966 132.723C44.1177 132.915 43.688 133.01 43.2075 133.01C42.7192 133.01 42.2837 132.915 41.9009 132.723C41.522 132.532 41.2251 132.27 41.0103 131.938C40.7954 131.606 40.688 131.233 40.688 130.819C40.688 130.323 40.7954 129.901 41.0103 129.553C41.229 129.206 41.5278 128.94 41.9067 128.757C42.2856 128.573 42.7173 128.481 43.2017 128.481C43.6899 128.481 44.1235 128.573 44.5024 128.757C44.8813 128.94 45.1782 129.206 45.3931 129.553C45.6118 129.901 45.7212 130.323 45.7212 130.819ZM44.6372 130.837C44.6372 130.552 44.5767 130.3 44.4556 130.081C44.3345 129.862 44.1665 129.69 43.9517 129.565C43.7368 129.436 43.4868 129.372 43.2017 129.372C42.9165 129.372 42.6665 129.432 42.4517 129.553C42.2407 129.671 42.0747 129.839 41.9536 130.057C41.8364 130.276 41.7778 130.536 41.7778 130.837C41.7778 131.13 41.8364 131.385 41.9536 131.604C42.0747 131.823 42.2427 131.993 42.4575 132.114C42.6724 132.235 42.9224 132.296 43.2075 132.296C43.4927 132.296 43.7407 132.235 43.9517 132.114C44.1665 131.993 44.3345 131.823 44.4556 131.604C44.5767 131.385 44.6372 131.13 44.6372 130.837Z" fill="#172755"/>
<rect x="53.9053" y="122.724" width="26.3607" height="20.769" fill="white"/>
<path d="M65.7422 136.239V137.13H60.1582V136.35L62.9531 133.239C63.2969 132.856 63.5625 132.532 63.75 132.266C63.9414 131.997 64.0742 131.757 64.1484 131.546C64.2266 131.331 64.2656 131.112 64.2656 130.889C64.2656 130.608 64.207 130.354 64.0898 130.128C63.9766 129.897 63.8086 129.714 63.5859 129.577C63.3633 129.44 63.0938 129.372 62.7773 129.372C62.3984 129.372 62.082 129.446 61.8281 129.594C61.5781 129.739 61.3906 129.942 61.2656 130.204C61.1406 130.466 61.0781 130.766 61.0781 131.106H59.9941C59.9941 130.626 60.0996 130.186 60.3105 129.788C60.5215 129.389 60.834 129.073 61.248 128.839C61.6621 128.6 62.1719 128.481 62.7773 128.481C63.3164 128.481 63.7773 128.577 64.1602 128.768C64.543 128.956 64.8359 129.221 65.0391 129.565C65.2461 129.905 65.3496 130.303 65.3496 130.76C65.3496 131.01 65.3066 131.264 65.2207 131.522C65.1387 131.776 65.0234 132.03 64.875 132.284C64.7305 132.538 64.5605 132.788 64.3652 133.034C64.1738 133.28 63.9688 133.522 63.75 133.76L61.4648 136.239H65.7422ZM67.9805 136.221H68.0918C68.7168 136.221 69.2246 136.134 69.6152 135.958C70.0059 135.782 70.3066 135.546 70.5176 135.249C70.7285 134.952 70.873 134.618 70.9512 134.247C71.0293 133.872 71.0684 133.487 71.0684 133.093V131.786C71.0684 131.399 71.0234 131.055 70.9336 130.755C70.8477 130.454 70.7266 130.202 70.5703 129.999C70.418 129.796 70.2441 129.641 70.0488 129.536C69.8535 129.43 69.6465 129.378 69.4277 129.378C69.1777 129.378 68.9531 129.428 68.7539 129.53C68.5586 129.628 68.3926 129.766 68.2559 129.946C68.123 130.126 68.0215 130.337 67.9512 130.579C67.8809 130.821 67.8457 131.085 67.8457 131.37C67.8457 131.624 67.877 131.87 67.9395 132.108C68.002 132.346 68.0977 132.561 68.2266 132.753C68.3555 132.944 68.5156 133.096 68.707 133.21C68.9023 133.319 69.1309 133.374 69.3926 133.374C69.6348 133.374 69.8613 133.327 70.0723 133.233C70.2871 133.135 70.4766 133.005 70.6406 132.841C70.8086 132.673 70.9414 132.483 71.0391 132.272C71.1406 132.061 71.1992 131.841 71.2148 131.61H71.7305C71.7305 131.934 71.666 132.255 71.5371 132.571C71.4121 132.884 71.2363 133.169 71.0098 133.427C70.7832 133.684 70.5176 133.891 70.2129 134.048C69.9082 134.2 69.5762 134.276 69.2168 134.276C68.7949 134.276 68.4297 134.194 68.1211 134.03C67.8125 133.866 67.5586 133.647 67.3594 133.374C67.1641 133.1 67.0176 132.796 66.9199 132.46C66.8262 132.12 66.7793 131.776 66.7793 131.428C66.7793 131.022 66.8359 130.641 66.9492 130.286C67.0625 129.93 67.2305 129.618 67.4531 129.348C67.6758 129.075 67.9512 128.862 68.2793 128.71C68.6113 128.557 68.9941 128.481 69.4277 128.481C69.916 128.481 70.332 128.579 70.6758 128.774C71.0195 128.969 71.2988 129.231 71.5137 129.559C71.7324 129.887 71.8926 130.257 71.9941 130.667C72.0957 131.077 72.1465 131.499 72.1465 131.932V132.325C72.1465 132.766 72.1172 133.216 72.0586 133.673C72.0039 134.126 71.8965 134.559 71.7363 134.973C71.5801 135.387 71.3516 135.759 71.0508 136.087C70.75 136.411 70.3574 136.669 69.873 136.86C69.3926 137.048 68.7988 137.141 68.0918 137.141H67.9805V136.221Z" fill="#172755"/>
<rect x="80.2656" y="122.724" width="26.3607" height="20.769" fill="white"/>
<path d="M88.0947 132.331H88.8682C89.2471 132.331 89.5596 132.268 89.8057 132.143C90.0557 132.014 90.2412 131.841 90.3623 131.622C90.4873 131.399 90.5498 131.149 90.5498 130.872C90.5498 130.544 90.4951 130.268 90.3857 130.046C90.2764 129.823 90.1123 129.655 89.8936 129.542C89.6748 129.428 89.3975 129.372 89.0615 129.372C88.7568 129.372 88.4873 129.432 88.2529 129.553C88.0225 129.671 87.8408 129.839 87.708 130.057C87.5791 130.276 87.5146 130.534 87.5146 130.831H86.4307C86.4307 130.397 86.54 130.003 86.7588 129.647C86.9775 129.292 87.2842 129.009 87.6787 128.798C88.0771 128.587 88.5381 128.481 89.0615 128.481C89.5771 128.481 90.0283 128.573 90.415 128.757C90.8018 128.936 91.1025 129.206 91.3174 129.565C91.5322 129.921 91.6396 130.364 91.6396 130.895C91.6396 131.11 91.5889 131.341 91.4873 131.587C91.3896 131.829 91.2354 132.055 91.0244 132.266C90.8174 132.477 90.5479 132.651 90.2158 132.788C89.8838 132.921 89.4854 132.987 89.0205 132.987H88.0947V132.331ZM88.0947 133.221V132.571H89.0205C89.5635 132.571 90.0127 132.635 90.3682 132.764C90.7236 132.893 91.0029 133.065 91.2061 133.28C91.4131 133.495 91.5576 133.731 91.6396 133.989C91.7256 134.243 91.7686 134.497 91.7686 134.751C91.7686 135.149 91.7002 135.503 91.5635 135.811C91.4307 136.12 91.2412 136.382 90.9951 136.596C90.7529 136.811 90.4678 136.973 90.1396 137.083C89.8115 137.192 89.4541 137.247 89.0674 137.247C88.6963 137.247 88.3467 137.194 88.0186 137.089C87.6943 136.983 87.4072 136.831 87.1572 136.632C86.9072 136.428 86.7119 136.18 86.5713 135.887C86.4307 135.591 86.3604 135.253 86.3604 134.874H87.4443C87.4443 135.171 87.5088 135.43 87.6377 135.653C87.7705 135.876 87.958 136.05 88.2002 136.175C88.4463 136.296 88.7354 136.356 89.0674 136.356C89.3994 136.356 89.6846 136.3 89.9229 136.186C90.165 136.069 90.3506 135.893 90.4795 135.659C90.6123 135.425 90.6787 135.13 90.6787 134.774C90.6787 134.419 90.6045 134.128 90.4561 133.901C90.3076 133.671 90.0967 133.501 89.8232 133.391C89.5537 133.278 89.2354 133.221 88.8682 133.221H88.0947ZM98.6182 132.184V133.485C98.6182 134.184 98.5557 134.774 98.4307 135.255C98.3057 135.735 98.126 136.122 97.8916 136.415C97.6572 136.708 97.374 136.921 97.042 137.053C96.7139 137.182 96.3428 137.247 95.9287 137.247C95.6006 137.247 95.2979 137.206 95.0205 137.124C94.7432 137.042 94.4932 136.911 94.2705 136.731C94.0518 136.548 93.8643 136.309 93.708 136.016C93.5518 135.723 93.4326 135.368 93.3506 134.95C93.2686 134.532 93.2275 134.044 93.2275 133.485V132.184C93.2275 131.485 93.29 130.899 93.415 130.427C93.5439 129.954 93.7256 129.575 93.96 129.29C94.1943 129.001 94.4756 128.794 94.8037 128.669C95.1357 128.544 95.5068 128.481 95.917 128.481C96.249 128.481 96.5537 128.522 96.8311 128.604C97.1123 128.682 97.3623 128.809 97.5811 128.985C97.7998 129.157 97.9854 129.387 98.1377 129.677C98.2939 129.962 98.4131 130.311 98.4951 130.725C98.5771 131.139 98.6182 131.626 98.6182 132.184ZM97.5283 133.661V132.003C97.5283 131.62 97.5049 131.284 97.458 130.995C97.415 130.702 97.3506 130.452 97.2646 130.245C97.1787 130.038 97.0693 129.87 96.9365 129.741C96.8076 129.612 96.6572 129.518 96.4854 129.46C96.3174 129.397 96.1279 129.366 95.917 129.366C95.6592 129.366 95.4307 129.415 95.2314 129.512C95.0322 129.606 94.8643 129.757 94.7275 129.964C94.5947 130.171 94.4932 130.442 94.4229 130.778C94.3525 131.114 94.3174 131.522 94.3174 132.003V133.661C94.3174 134.044 94.3389 134.382 94.3818 134.675C94.4287 134.968 94.4971 135.221 94.5869 135.436C94.6768 135.647 94.7861 135.821 94.915 135.958C95.0439 136.094 95.1924 136.196 95.3604 136.262C95.5322 136.325 95.7217 136.356 95.9287 136.356C96.1943 136.356 96.4268 136.305 96.626 136.204C96.8252 136.102 96.9912 135.944 97.124 135.729C97.2607 135.51 97.3623 135.231 97.4287 134.891C97.4951 134.548 97.5283 134.137 97.5283 133.661Z" fill="#172755"/>
<rect x="106.626" y="122.724" width="26.3607" height="20.769" fill="white"/>
<path d="M114.456 132.331H115.229C115.608 132.331 115.92 132.268 116.167 132.143C116.417 132.014 116.602 131.841 116.723 131.622C116.848 131.399 116.911 131.149 116.911 130.872C116.911 130.544 116.856 130.268 116.747 130.046C116.637 129.823 116.473 129.655 116.254 129.542C116.036 129.428 115.758 129.372 115.422 129.372C115.118 129.372 114.848 129.432 114.614 129.553C114.383 129.671 114.202 129.839 114.069 130.057C113.94 130.276 113.875 130.534 113.875 130.831H112.792C112.792 130.397 112.901 130.003 113.12 129.647C113.338 129.292 113.645 129.009 114.04 128.798C114.438 128.587 114.899 128.481 115.422 128.481C115.938 128.481 116.389 128.573 116.776 128.757C117.163 128.936 117.463 129.206 117.678 129.565C117.893 129.921 118 130.364 118 130.895C118 131.11 117.95 131.341 117.848 131.587C117.75 131.829 117.596 132.055 117.385 132.266C117.178 132.477 116.909 132.651 116.577 132.788C116.245 132.921 115.846 132.987 115.381 132.987H114.456V132.331ZM114.456 133.221V132.571H115.381C115.924 132.571 116.374 132.635 116.729 132.764C117.084 132.893 117.364 133.065 117.567 133.28C117.774 133.495 117.918 133.731 118 133.989C118.086 134.243 118.129 134.497 118.129 134.751C118.129 135.149 118.061 135.503 117.924 135.811C117.792 136.12 117.602 136.382 117.356 136.596C117.114 136.811 116.829 136.973 116.5 137.083C116.172 137.192 115.815 137.247 115.428 137.247C115.057 137.247 114.708 137.194 114.379 137.089C114.055 136.983 113.768 136.831 113.518 136.632C113.268 136.428 113.073 136.18 112.932 135.887C112.792 135.591 112.721 135.253 112.721 134.874H113.805C113.805 135.171 113.87 135.43 113.999 135.653C114.131 135.876 114.319 136.05 114.561 136.175C114.807 136.296 115.096 136.356 115.428 136.356C115.76 136.356 116.045 136.3 116.284 136.186C116.526 136.069 116.711 135.893 116.84 135.659C116.973 135.425 117.04 135.13 117.04 134.774C117.04 134.419 116.965 134.128 116.817 133.901C116.668 133.671 116.458 133.501 116.184 133.391C115.915 133.278 115.596 133.221 115.229 133.221H114.456ZM123.186 128.552V137.13H122.102V129.905L119.917 130.702V129.723L123.016 128.552H123.186Z" fill="#172755"/>
<rect x="132.987" y="122.724" width="26.3607" height="20.769" fill="white"/>
<rect x="159.348" y="122.724" width="26.3607" height="20.769" fill="white"/>
<rect x="185.708" y="122.724" width="26.3607" height="20.769" fill="white"/>
<path d="M35.0111 23.2677H35.4487L36.565 26.0456L37.679 23.2677H38.119L36.7335 26.6751H36.3919L35.0111 23.2677ZM34.8683 23.2677H35.2545L35.3177 25.3458V26.6751H34.8683V23.2677ZM37.8732 23.2677H38.2594V26.6751H37.81V25.3458L37.8732 23.2677ZM41.6762 24.8638V25.0791C41.6762 25.3349 41.6442 25.5643 41.5802 25.7671C41.5162 25.9699 41.4242 26.1423 41.3041 26.2843C41.1839 26.4263 41.0396 26.5347 40.8711 26.6096C40.7042 26.6845 40.5169 26.7219 40.3094 26.7219C40.1082 26.7219 39.9233 26.6845 39.7548 26.6096C39.5879 26.5347 39.4428 26.4263 39.3195 26.2843C39.1978 26.1423 39.1034 25.9699 39.0363 25.7671C38.9693 25.5643 38.9357 25.3349 38.9357 25.0791V24.8638C38.9357 24.6079 38.9685 24.3793 39.034 24.1781C39.1011 23.9752 39.1955 23.8028 39.3172 23.6609C39.4389 23.5173 39.5832 23.4081 39.7501 23.3332C39.9186 23.2583 40.1035 23.2209 40.3048 23.2209C40.5123 23.2209 40.6995 23.2583 40.8664 23.3332C41.0349 23.4081 41.1792 23.5173 41.2994 23.6609C41.4211 23.8028 41.5139 23.9752 41.5779 24.1781C41.6434 24.3793 41.6762 24.6079 41.6762 24.8638ZM41.2292 25.0791V24.8591C41.2292 24.6562 41.2081 24.4768 41.166 24.3208C41.1254 24.1648 41.0653 24.0337 40.9858 23.9276C40.9062 23.8216 40.8087 23.7412 40.6932 23.6866C40.5794 23.632 40.4499 23.6047 40.3048 23.6047C40.1643 23.6047 40.0372 23.632 39.9233 23.6866C39.811 23.7412 39.7142 23.8216 39.6331 23.9276C39.5535 24.0337 39.4919 24.1648 39.4482 24.3208C39.4045 24.4768 39.3827 24.6562 39.3827 24.8591V25.0791C39.3827 25.2834 39.4045 25.4644 39.4482 25.622C39.4919 25.778 39.5543 25.9098 39.6354 26.0175C39.7181 26.1236 39.8156 26.2039 39.928 26.2585C40.0419 26.3132 40.169 26.3405 40.3094 26.3405C40.4561 26.3405 40.5864 26.3132 40.7003 26.2585C40.8142 26.2039 40.9101 26.1236 40.9881 26.0175C41.0677 25.9098 41.1278 25.778 41.1683 25.622C41.2089 25.4644 41.2292 25.2834 41.2292 25.0791ZM44.9736 23.2677V26.6751H44.5196L42.8042 24.047V26.6751H42.3525V23.2677H42.8042L44.5266 25.9028V23.2677H44.9736Z" fill="#8794BA"/>
<path d="M63.5952 23.2677V26.6751H63.1506V23.2677H63.5952ZM64.6905 23.2677V23.6375H62.0577V23.2677H64.6905ZM67.1454 23.2677H67.5947V25.5728C67.5947 25.8287 67.5378 26.0417 67.4239 26.2117C67.31 26.3818 67.1586 26.5097 66.9699 26.5955C66.7826 26.6798 66.579 26.7219 66.3591 26.7219C66.1282 26.7219 65.9191 26.6798 65.7319 26.5955C65.5462 26.5097 65.3988 26.3818 65.2896 26.2117C65.1819 26.0417 65.1281 25.8287 65.1281 25.5728V23.2677H65.5751V25.5728C65.5751 25.7507 65.6078 25.8974 65.6734 26.0128C65.7389 26.1283 65.8302 26.2141 65.9472 26.2702C66.0657 26.3264 66.203 26.3545 66.3591 26.3545C66.5166 26.3545 66.6539 26.3264 66.7709 26.2702C66.8895 26.2141 66.9816 26.1283 67.0471 26.0128C67.1126 25.8974 67.1454 25.7507 67.1454 25.5728V23.2677ZM70.4685 26.3077V26.6751H68.6642V26.3077H70.4685ZM68.7555 23.2677V26.6751H68.3038V23.2677H68.7555ZM70.2298 24.7327V25.1001H68.6642V24.7327H70.2298ZM70.4451 23.2677V23.6375H68.6642V23.2677H70.4451Z" fill="#8794BA"/>
<path d="M88.8772 25.6454L89.5535 23.2677H89.8811L89.6916 24.1921L88.9638 26.6751H88.6385L88.8772 25.6454ZM88.1774 23.2677L88.7157 25.5986L88.8772 26.6751H88.5542L87.7281 23.2677H88.1774ZM90.7564 25.5963L91.283 23.2677H91.7346L90.9109 26.6751H90.5879L90.7564 25.5963ZM89.9303 23.2677L90.5879 25.6454L90.8266 26.6751H90.5013L89.7992 24.1921L89.6073 23.2677H89.9303ZM94.4002 26.3077V26.6751H92.5958V26.3077H94.4002ZM92.6871 23.2677V26.6751H92.2354V23.2677H92.6871ZM94.1615 24.7327V25.1001H92.5958V24.7327H94.1615ZM94.3768 23.2677V23.6375H92.5958V23.2677H94.3768ZM95.8816 26.6751H95.1701L95.1748 26.3077H95.8816C96.125 26.3077 96.3278 26.257 96.49 26.1556C96.6523 26.0526 96.774 25.9091 96.8551 25.725C96.9378 25.5393 96.9791 25.3224 96.9791 25.0744V24.8661C96.9791 24.6711 96.9557 24.4979 96.9089 24.3466C96.8621 24.1937 96.7935 24.0649 96.703 23.9604C96.6125 23.8543 96.5017 23.774 96.3707 23.7194C96.2412 23.6648 96.0922 23.6375 95.9237 23.6375H95.1561V23.2677H95.9237C96.1468 23.2677 96.3504 23.3051 96.5345 23.38C96.7186 23.4534 96.877 23.5602 97.0096 23.7006C97.1437 23.8395 97.2467 24.008 97.3185 24.2061C97.3902 24.4027 97.4261 24.6243 97.4261 24.8708V25.0744C97.4261 25.3209 97.3902 25.5432 97.3185 25.7413C97.2467 25.9379 97.143 26.1056 97.0072 26.2445C96.8731 26.3834 96.7108 26.4902 96.5205 26.5651C96.3317 26.6384 96.1187 26.6751 95.8816 26.6751ZM95.4112 23.2677V26.6751H94.9595V23.2677H95.4112Z" fill="#8794BA"/>
<path d="M115.968 23.2677V26.6751H115.523V23.2677H115.968ZM117.063 23.2677V23.6375H114.43V23.2677H117.063ZM119.794 24.7327V25.1001H117.95V24.7327H119.794ZM118.02 23.2677V26.6751H117.568V23.2677H118.02ZM120.187 23.2677V26.6751H119.738V23.2677H120.187ZM122.939 23.2677H123.389V25.5728C123.389 25.8287 123.332 26.0417 123.218 26.2117C123.104 26.3818 122.953 26.5097 122.764 26.5955C122.577 26.6798 122.373 26.7219 122.153 26.7219C121.922 26.7219 121.713 26.6798 121.526 26.5955C121.34 26.5097 121.193 26.3818 121.083 26.2117C120.976 26.0417 120.922 25.8287 120.922 25.5728V23.2677H121.369V25.5728C121.369 25.7507 121.402 25.8974 121.467 26.0128C121.533 26.1283 121.624 26.2141 121.741 26.2702C121.86 26.3264 121.997 26.3545 122.153 26.3545C122.311 26.3545 122.448 26.3264 122.565 26.2702C122.683 26.2141 122.776 26.1283 122.841 26.0128C122.907 25.8974 122.939 25.7507 122.939 25.5728V23.2677Z" fill="#8794BA"/>
<path d="M142.762 23.2677V26.6751H142.31V23.2677H142.762ZM144.189 24.8006V25.1703H142.663V24.8006H144.189ZM144.421 23.2677V23.6375H142.663V23.2677H144.421ZM144.959 23.2677H146.087C146.343 23.2677 146.559 23.3067 146.735 23.3847C146.913 23.4627 147.048 23.5782 147.14 23.7311C147.234 23.8824 147.281 24.0688 147.281 24.2904C147.281 24.4464 147.249 24.5892 147.185 24.7187C147.122 24.8466 147.032 24.9558 146.913 25.0463C146.796 25.1352 146.656 25.2015 146.492 25.2452L146.366 25.2944H145.305L145.301 24.9269H146.101C146.263 24.9269 146.398 24.8989 146.506 24.8427C146.614 24.785 146.695 24.7077 146.749 24.611C146.804 24.5143 146.831 24.4074 146.831 24.2904C146.831 24.1593 146.805 24.0447 146.754 23.9464C146.703 23.8481 146.621 23.7724 146.511 23.7194C146.401 23.6648 146.26 23.6375 146.087 23.6375H145.411V26.6751H144.959V23.2677ZM146.951 26.6751L146.122 25.1305L146.593 25.1282L147.433 26.647V26.6751H146.951ZM148.397 23.2677V26.6751H147.945V23.2677H148.397Z" fill="#8794BA"/>
<path d="M169.677 25.8139C169.677 25.7343 169.664 25.6641 169.64 25.6033C169.616 25.5409 169.574 25.4847 169.513 25.4348C169.454 25.3848 169.371 25.3373 169.265 25.292C169.161 25.2468 169.028 25.2007 168.867 25.1539C168.699 25.104 168.547 25.0486 168.411 24.9878C168.275 24.9254 168.159 24.8544 168.062 24.7748C167.965 24.6953 167.891 24.604 167.84 24.501C167.788 24.398 167.763 24.2802 167.763 24.1476C167.763 24.015 167.79 23.8925 167.845 23.7802C167.899 23.6679 167.977 23.5704 168.079 23.4877C168.182 23.4034 168.304 23.3379 168.446 23.2911C168.588 23.2443 168.746 23.2209 168.921 23.2209C169.177 23.2209 169.394 23.27 169.572 23.3683C169.751 23.4651 169.888 23.5922 169.981 23.7498C170.075 23.9058 170.122 24.0727 170.122 24.2506H169.672C169.672 24.1227 169.645 24.0096 169.59 23.9113C169.536 23.8114 169.453 23.7334 169.342 23.6772C169.232 23.6195 169.091 23.5907 168.921 23.5907C168.76 23.5907 168.628 23.6148 168.523 23.6632C168.419 23.7116 168.341 23.7771 168.289 23.8598C168.239 23.9425 168.214 24.0369 168.214 24.143C168.214 24.2147 168.229 24.2802 168.259 24.3395C168.29 24.3973 168.338 24.4511 168.402 24.501C168.467 24.5509 168.55 24.597 168.65 24.6391C168.751 24.6812 168.872 24.7218 169.012 24.7608C169.206 24.8154 169.373 24.8762 169.513 24.9433C169.654 25.0104 169.769 25.0861 169.86 25.1703C169.952 25.253 170.019 25.3474 170.063 25.4535C170.108 25.558 170.131 25.6766 170.131 25.8092C170.131 25.9481 170.103 26.0737 170.047 26.186C169.991 26.2983 169.91 26.3943 169.806 26.4738C169.701 26.5534 169.576 26.615 169.429 26.6587C169.284 26.7009 169.122 26.7219 168.942 26.7219C168.785 26.7219 168.629 26.7001 168.476 26.6564C168.325 26.6127 168.187 26.5472 168.062 26.4598C167.939 26.3724 167.84 26.2648 167.765 26.1369C167.692 26.0074 167.655 25.8576 167.655 25.6875H168.104C168.104 25.8045 168.127 25.9052 168.172 25.9894C168.217 26.0721 168.279 26.1408 168.357 26.1954C168.437 26.25 168.526 26.2905 168.626 26.3171C168.728 26.342 168.833 26.3545 168.942 26.3545C169.1 26.3545 169.233 26.3327 169.342 26.289C169.452 26.2453 169.534 26.1829 169.59 26.1017C169.648 26.0206 169.677 25.9247 169.677 25.8139ZM171.968 23.5696L170.84 26.6751H170.379L171.678 23.2677H171.975L171.968 23.5696ZM172.914 26.6751L171.783 23.5696L171.776 23.2677H172.073L173.377 26.6751H172.914ZM172.855 25.4137V25.7835H170.941V25.4137H172.855ZM174.788 23.2677V26.6751H174.343V23.2677H174.788ZM175.883 23.2677V23.6375H173.251V23.2677H175.883Z" fill="#8794BA"/>
<path d="M195.614 25.8139C195.614 25.7343 195.602 25.6641 195.577 25.6033C195.553 25.5409 195.511 25.4847 195.45 25.4348C195.391 25.3848 195.308 25.3373 195.202 25.292C195.098 25.2468 194.965 25.2007 194.804 25.1539C194.636 25.104 194.484 25.0486 194.348 24.9878C194.212 24.9254 194.096 24.8544 193.999 24.7748C193.903 24.6953 193.829 24.604 193.777 24.501C193.726 24.398 193.7 24.2802 193.7 24.1476C193.7 24.015 193.727 23.8925 193.782 23.7802C193.836 23.6679 193.914 23.5704 194.016 23.4877C194.119 23.4034 194.241 23.3379 194.383 23.2911C194.525 23.2443 194.684 23.2209 194.858 23.2209C195.114 23.2209 195.331 23.27 195.509 23.3683C195.688 23.4651 195.825 23.5922 195.918 23.7498C196.012 23.9058 196.059 24.0727 196.059 24.2506H195.61C195.61 24.1227 195.582 24.0096 195.528 23.9113C195.473 23.8114 195.39 23.7334 195.28 23.6772C195.169 23.6195 195.028 23.5907 194.858 23.5907C194.698 23.5907 194.565 23.6148 194.46 23.6632C194.356 23.7116 194.278 23.7771 194.226 23.8598C194.177 23.9425 194.152 24.0369 194.152 24.143C194.152 24.2147 194.166 24.2802 194.196 24.3395C194.227 24.3973 194.275 24.4511 194.339 24.501C194.404 24.5509 194.487 24.597 194.587 24.6391C194.688 24.6812 194.809 24.7218 194.95 24.7608C195.143 24.8154 195.31 24.8762 195.45 24.9433C195.591 25.0104 195.706 25.0861 195.797 25.1703C195.889 25.253 195.957 25.3474 196 25.4535C196.046 25.558 196.068 25.6766 196.068 25.8092C196.068 25.9481 196.04 26.0737 195.984 26.186C195.928 26.2983 195.847 26.3943 195.743 26.4738C195.638 26.5534 195.513 26.615 195.366 26.6587C195.221 26.7009 195.059 26.7219 194.879 26.7219C194.722 26.7219 194.567 26.7001 194.414 26.6564C194.262 26.6127 194.124 26.5472 193.999 26.4598C193.876 26.3724 193.777 26.2648 193.702 26.1369C193.629 26.0074 193.592 25.8576 193.592 25.6875H194.042C194.042 25.8045 194.064 25.9052 194.109 25.9894C194.155 26.0721 194.216 26.1408 194.294 26.1954C194.374 26.25 194.464 26.2905 194.563 26.3171C194.665 26.342 194.77 26.3545 194.879 26.3545C195.037 26.3545 195.17 26.3327 195.28 26.289C195.389 26.2453 195.471 26.1829 195.528 26.1017C195.585 26.0206 195.614 25.9247 195.614 25.8139ZM198.593 23.2677H199.043V25.5728C199.043 25.8287 198.986 26.0417 198.872 26.2117C198.758 26.3818 198.607 26.5097 198.418 26.5955C198.231 26.6798 198.027 26.7219 197.807 26.7219C197.576 26.7219 197.367 26.6798 197.18 26.5955C196.994 26.5097 196.847 26.3818 196.738 26.2117C196.63 26.0417 196.576 25.8287 196.576 25.5728V23.2677H197.023V25.5728C197.023 25.7507 197.056 25.8974 197.121 26.0128C197.187 26.1283 197.278 26.2141 197.395 26.2702C197.514 26.3264 197.651 26.3545 197.807 26.3545C197.965 26.3545 198.102 26.3264 198.219 26.2702C198.337 26.2141 198.43 26.1283 198.495 26.0128C198.561 25.8974 198.593 25.7507 198.593 25.5728V23.2677ZM202.373 23.2677V26.6751H201.919L200.203 24.047V26.6751H199.752V23.2677H200.203L201.926 25.9028V23.2677H202.373Z" fill="#8794BA"/>
</svg>
