<svg width="240" height="164" viewBox="0 0 240 164" fill="none" xmlns="http://www.w3.org/2000/svg">
<rect x="0.198242" y="0.162476" width="239.642" height="163.756" rx="11.9821" fill="white"/>
<path d="M186.099 49.6969V50.4966L181.463 60.8927H179.963L184.592 50.8657H178.533V49.6969H186.099ZM189.137 59.7008H189.283C190.103 59.7008 190.769 59.5855 191.282 59.3548C191.795 59.1241 192.189 58.814 192.466 58.4244C192.743 58.0348 192.933 57.5965 193.035 57.1095C193.138 56.6174 193.189 56.1124 193.189 55.5947V53.88C193.189 53.3725 193.13 52.9213 193.012 52.5266C192.899 52.1319 192.74 51.8012 192.535 51.5347C192.335 51.2681 192.107 51.0656 191.851 50.9272C191.595 50.7888 191.323 50.7196 191.036 50.7196C190.708 50.7196 190.413 50.7862 190.152 50.9195C189.895 51.0477 189.677 51.2297 189.498 51.4655C189.324 51.7013 189.19 51.9781 189.098 52.2959C189.006 52.6138 188.96 52.9598 188.96 53.334C188.96 53.6672 189.001 53.9902 189.083 54.3029C189.165 54.6156 189.29 54.8975 189.46 55.1487C189.629 55.3999 189.839 55.5998 190.09 55.7485C190.346 55.892 190.646 55.9638 190.99 55.9638C191.308 55.9638 191.605 55.9023 191.882 55.7792C192.164 55.6511 192.412 55.4794 192.628 55.264C192.848 55.0436 193.022 54.795 193.15 54.5182C193.284 54.2414 193.361 53.9517 193.381 53.6493H194.058C194.058 54.0748 193.973 54.4951 193.804 54.9103C193.64 55.3204 193.409 55.6947 193.112 56.033C192.815 56.3713 192.466 56.643 192.066 56.8481C191.666 57.048 191.231 57.148 190.759 57.148C190.205 57.148 189.726 57.0403 189.321 56.825C188.916 56.6097 188.583 56.3226 188.322 55.9638C188.065 55.6049 187.873 55.2051 187.745 54.7642C187.622 54.3182 187.56 53.8671 187.56 53.4109C187.56 52.8778 187.635 52.378 187.783 51.9115C187.932 51.445 188.152 51.0349 188.445 50.6812C188.737 50.3223 189.098 50.0429 189.529 49.843C189.964 49.6431 190.467 49.5431 191.036 49.5431C191.677 49.5431 192.223 49.6713 192.674 49.9276C193.125 50.1839 193.491 50.5274 193.773 50.958C194.06 51.3886 194.271 51.873 194.404 52.4113C194.537 52.9495 194.604 53.5032 194.604 54.0722V54.5874C194.604 55.1666 194.565 55.7562 194.488 56.3559C194.417 56.9506 194.276 57.5196 194.066 58.063C193.86 58.6064 193.561 59.0934 193.166 59.524C192.771 59.9495 192.256 60.2878 191.62 60.539C190.99 60.785 190.211 60.9081 189.283 60.9081H189.137V59.7008ZM196.457 52.442V51.8499C196.457 51.4245 196.549 51.0374 196.734 50.6888C196.918 50.3403 197.182 50.0609 197.526 49.8507C197.869 49.6405 198.277 49.5354 198.748 49.5354C199.23 49.5354 199.64 49.6405 199.979 49.8507C200.322 50.0609 200.586 50.3403 200.771 50.6888C200.955 51.0374 201.047 51.4245 201.047 51.8499V52.442C201.047 52.8573 200.955 53.2392 200.771 53.5878C200.591 53.9363 200.33 54.2157 199.986 54.4259C199.648 54.6361 199.24 54.7412 198.764 54.7412C198.287 54.7412 197.874 54.6361 197.526 54.4259C197.182 54.2157 196.918 53.9363 196.734 53.5878C196.549 53.2392 196.457 52.8573 196.457 52.442ZM197.526 51.8499V52.442C197.526 52.6778 197.569 52.9008 197.656 53.111C197.749 53.3212 197.887 53.4929 198.072 53.6262C198.256 53.7544 198.487 53.8184 198.764 53.8184C199.041 53.8184 199.269 53.7544 199.448 53.6262C199.628 53.4929 199.761 53.3212 199.848 53.111C199.935 52.9008 199.979 52.6778 199.979 52.442V51.8499C199.979 51.609 199.933 51.3835 199.84 51.1733C199.753 50.958 199.617 50.7862 199.433 50.6581C199.253 50.5248 199.025 50.4582 198.748 50.4582C198.477 50.4582 198.249 50.5248 198.064 50.6581C197.885 50.7862 197.749 50.958 197.656 51.1733C197.569 51.3835 197.526 51.609 197.526 51.8499ZM201.909 58.7474V58.1476C201.909 57.7272 202.001 57.3428 202.186 56.9942C202.37 56.6456 202.634 56.3662 202.978 56.156C203.321 55.9458 203.729 55.8408 204.2 55.8408C204.682 55.8408 205.092 55.9458 205.43 56.156C205.774 56.3662 206.038 56.6456 206.222 56.9942C206.407 57.3428 206.499 57.7272 206.499 58.1476V58.7474C206.499 59.1677 206.407 59.5522 206.222 59.9008C206.043 60.2494 205.782 60.5287 205.438 60.7389C205.1 60.9491 204.692 61.0542 204.216 61.0542C203.739 61.0542 203.329 60.9491 202.985 60.7389C202.642 60.5287 202.375 60.2494 202.186 59.9008C202.001 59.5522 201.909 59.1677 201.909 58.7474ZM202.978 58.1476V58.7474C202.978 58.9832 203.021 59.2087 203.108 59.424C203.201 59.6342 203.339 59.8059 203.523 59.9392C203.708 60.0674 203.939 60.1314 204.216 60.1314C204.492 60.1314 204.72 60.0674 204.9 59.9392C205.084 59.8059 205.22 59.6342 205.307 59.424C205.395 59.2138 205.438 58.9883 205.438 58.7474V58.1476C205.438 57.9066 205.392 57.6811 205.3 57.4709C205.213 57.2607 205.077 57.0916 204.892 56.9634C204.713 56.8301 204.482 56.7635 204.2 56.7635C203.928 56.7635 203.7 56.8301 203.516 56.9634C203.336 57.0916 203.201 57.2607 203.108 57.4709C203.021 57.6811 202.978 57.9066 202.978 58.1476ZM204.554 51.2886L199.087 60.0392L198.287 59.5317L203.754 50.7811L204.554 51.2886Z" fill="#0088F0"/>
<path d="M180.036 71.8077V71.7269C180.036 71.4531 180.076 71.1992 180.156 70.9652C180.235 70.7288 180.35 70.524 180.5 70.3509C180.649 70.1753 180.831 70.0396 181.044 69.9437C181.257 69.8454 181.495 69.7962 181.76 69.7962C182.027 69.7962 182.267 69.8454 182.48 69.9437C182.695 70.0396 182.877 70.1753 183.027 70.3509C183.179 70.524 183.295 70.7288 183.375 70.9652C183.454 71.1992 183.494 71.4531 183.494 71.7269V71.8077C183.494 72.0815 183.454 72.3354 183.375 72.5694C183.295 72.8035 183.179 73.0082 183.027 73.1838C182.877 73.3569 182.696 73.4927 182.483 73.591C182.272 73.6869 182.034 73.7349 181.767 73.7349C181.5 73.7349 181.26 73.6869 181.047 73.591C180.834 73.4927 180.652 73.3569 180.5 73.1838C180.35 73.0082 180.235 72.8035 180.156 72.5694C180.076 72.3354 180.036 72.0815 180.036 71.8077ZM180.686 71.7269V71.8077C180.686 71.9972 180.708 72.1763 180.752 72.3448C180.797 72.5109 180.864 72.6584 180.953 72.7871C181.044 72.9158 181.157 73.0176 181.293 73.0925C181.429 73.165 181.587 73.2013 181.767 73.2013C181.945 73.2013 182.1 73.165 182.234 73.0925C182.37 73.0176 182.482 72.9158 182.571 72.7871C182.66 72.6584 182.726 72.5109 182.771 72.3448C182.818 72.1763 182.841 71.9972 182.841 71.8077V71.7269C182.841 71.5397 182.818 71.363 182.771 71.1969C182.726 71.0284 182.659 70.8798 182.567 70.7511C182.478 70.62 182.366 70.517 182.23 70.4421C182.097 70.3673 181.94 70.3298 181.76 70.3298C181.582 70.3298 181.425 70.3673 181.29 70.4421C181.156 70.517 181.044 70.62 180.953 70.7511C180.864 70.8798 180.797 71.0284 180.752 71.1969C180.708 71.363 180.686 71.5397 180.686 71.7269ZM184.958 70.5966V75.125H184.305V69.8664H184.902L184.958 70.5966ZM187.517 71.734V71.8077C187.517 72.0838 187.484 72.3401 187.419 72.5765C187.353 72.8105 187.257 73.0141 187.131 73.1873C187.007 73.3604 186.854 73.495 186.671 73.591C186.488 73.6869 186.279 73.7349 186.043 73.7349C185.802 73.7349 185.589 73.6951 185.404 73.6155C185.219 73.536 185.062 73.4201 184.933 73.268C184.805 73.1159 184.702 72.9333 184.624 72.7204C184.55 72.5074 184.498 72.2675 184.47 72.0008V71.6076C184.498 71.3268 184.551 71.0752 184.628 70.8529C184.705 70.6305 184.807 70.441 184.933 70.2842C185.062 70.125 185.218 70.0045 185.4 69.9226C185.583 69.8384 185.793 69.7962 186.032 69.7962C186.271 69.7962 186.483 69.843 186.667 69.9366C186.852 70.0279 187.008 70.159 187.134 70.3298C187.261 70.5006 187.355 70.7054 187.419 70.9441C187.484 71.1805 187.517 71.4438 187.517 71.734ZM186.864 71.8077V71.734C186.864 71.5444 186.844 71.3665 186.804 71.2004C186.765 71.0319 186.703 70.8844 186.618 70.7581C186.536 70.6294 186.431 70.5287 186.302 70.4562C186.174 70.3813 186.02 70.3438 185.843 70.3438C185.679 70.3438 185.536 70.3719 185.414 70.4281C185.295 70.4843 185.193 70.5603 185.109 70.6563C185.025 70.7499 184.956 70.8575 184.902 70.9792C184.85 71.0986 184.812 71.2226 184.786 71.3513V72.2605C184.833 72.4243 184.898 72.5788 184.982 72.7239C185.067 72.8666 185.179 72.9825 185.319 73.0714C185.46 73.158 185.637 73.2013 185.85 73.2013C186.025 73.2013 186.176 73.165 186.302 73.0925C186.431 73.0176 186.536 72.9158 186.618 72.7871C186.703 72.6584 186.765 72.5109 186.804 72.3448C186.844 72.1763 186.864 71.9972 186.864 71.8077ZM189.936 69.8664V70.3649H187.882V69.8664H189.936ZM188.577 68.9432H189.227V72.7239C189.227 72.8526 189.246 72.9497 189.286 73.0153C189.326 73.0808 189.377 73.1241 189.441 73.1451C189.504 73.1662 189.572 73.1767 189.644 73.1767C189.698 73.1767 189.754 73.172 189.813 73.1627C189.874 73.151 189.919 73.1416 189.95 73.1346L189.953 73.6647C189.902 73.6811 189.834 73.6963 189.75 73.7103C189.668 73.7267 189.568 73.7349 189.451 73.7349C189.292 73.7349 189.146 73.7033 189.012 73.6401C188.879 73.5769 188.773 73.4716 188.693 73.3242C188.616 73.1744 188.577 72.9731 188.577 72.7204V68.9432ZM191.403 69.8664V73.6647H190.75V69.8664H191.403ZM190.701 68.859C190.701 68.7536 190.732 68.6647 190.796 68.5922C190.861 68.5196 190.957 68.4833 191.084 68.4833C191.208 68.4833 191.302 68.5196 191.368 68.5922C191.436 68.6647 191.47 68.7536 191.47 68.859C191.47 68.9596 191.436 69.0462 191.368 69.1187C191.302 69.1889 191.208 69.224 191.084 69.224C190.957 69.224 190.861 69.1889 190.796 69.1187C190.732 69.0462 190.701 68.9596 190.701 68.859ZM192.274 71.8077V71.7269C192.274 71.4531 192.313 71.1992 192.393 70.9652C192.472 70.7288 192.587 70.524 192.737 70.3509C192.887 70.1753 193.068 70.0396 193.281 69.9437C193.494 69.8454 193.733 69.7962 193.997 69.7962C194.264 69.7962 194.504 69.8454 194.717 69.9437C194.932 70.0396 195.115 70.1753 195.264 70.3509C195.417 70.524 195.532 70.7288 195.612 70.9652C195.691 71.1992 195.731 71.4531 195.731 71.7269V71.8077C195.731 72.0815 195.691 72.3354 195.612 72.5694C195.532 72.8035 195.417 73.0082 195.264 73.1838C195.115 73.3569 194.933 73.4927 194.72 73.591C194.51 73.6869 194.271 73.7349 194.004 73.7349C193.737 73.7349 193.497 73.6869 193.285 73.591C193.072 73.4927 192.889 73.3569 192.737 73.1838C192.587 73.0082 192.472 72.8035 192.393 72.5694C192.313 72.3354 192.274 72.0815 192.274 71.8077ZM192.923 71.7269V71.8077C192.923 71.9972 192.945 72.1763 192.99 72.3448C193.034 72.5109 193.101 72.6584 193.19 72.7871C193.281 72.9158 193.395 73.0176 193.53 73.0925C193.666 73.165 193.824 73.2013 194.004 73.2013C194.182 73.2013 194.338 73.165 194.471 73.0925C194.607 73.0176 194.719 72.9158 194.808 72.7871C194.897 72.6584 194.964 72.5109 195.008 72.3448C195.055 72.1763 195.078 71.9972 195.078 71.8077V71.7269C195.078 71.5397 195.055 71.363 195.008 71.1969C194.964 71.0284 194.896 70.8798 194.805 70.7511C194.716 70.62 194.603 70.517 194.468 70.4421C194.334 70.3673 194.177 70.3298 193.997 70.3298C193.819 70.3298 193.662 70.3673 193.527 70.4421C193.393 70.517 193.281 70.62 193.19 70.7511C193.101 70.8798 193.034 71.0284 192.99 71.1969C192.945 71.363 192.923 71.5397 192.923 71.7269ZM197.195 70.6773V73.6647H196.546V69.8664H197.16L197.195 70.6773ZM197.041 71.6216L196.77 71.6111C196.773 71.3513 196.811 71.1115 196.886 70.8915C196.961 70.6691 197.066 70.4761 197.202 70.3123C197.338 70.1484 197.499 70.0221 197.687 69.9331C197.876 69.8419 198.086 69.7962 198.315 69.7962C198.502 69.7962 198.671 69.822 198.82 69.8735C198.97 69.9226 199.098 70.0022 199.203 70.1122C199.311 70.2222 199.393 70.3649 199.449 70.5404C199.505 70.7136 199.533 70.9254 199.533 71.1758V73.6647H198.88V71.1688C198.88 70.9699 198.851 70.8107 198.792 70.6914C198.734 70.5697 198.648 70.4819 198.536 70.4281C198.424 70.3719 198.286 70.3438 198.122 70.3438C197.96 70.3438 197.813 70.3778 197.68 70.4456C197.548 70.5135 197.435 70.6071 197.339 70.7265C197.245 70.8458 197.172 70.9827 197.118 71.1372C197.066 71.2893 197.041 71.4508 197.041 71.6216ZM204.367 68.5255V73.6647H203.717V69.3364L202.408 69.8138V69.2275L204.265 68.5255H204.367Z" fill="#8794BA"/>
<path d="M185.922 102.596C185.922 103.278 185.763 103.857 185.446 104.334C185.133 104.806 184.707 105.165 184.169 105.411C183.636 105.657 183.034 105.78 182.362 105.78C181.691 105.78 181.086 105.657 180.548 105.411C180.009 105.165 179.584 104.806 179.271 104.334C178.958 103.857 178.802 103.278 178.802 102.596C178.802 102.15 178.887 101.743 179.056 101.374C179.23 101 179.474 100.674 179.786 100.397C180.104 100.12 180.478 99.9076 180.909 99.759C181.345 99.6052 181.824 99.5283 182.347 99.5283C183.034 99.5283 183.646 99.6616 184.185 99.9281C184.723 100.19 185.146 100.551 185.453 101.012C185.766 101.474 185.922 102.002 185.922 102.596ZM184.492 102.566C184.492 102.15 184.402 101.784 184.223 101.466C184.044 101.143 183.792 100.892 183.469 100.712C183.147 100.533 182.772 100.443 182.347 100.443C181.911 100.443 181.534 100.533 181.216 100.712C180.904 100.892 180.66 101.143 180.486 101.466C180.312 101.784 180.225 102.15 180.225 102.566C180.225 102.996 180.309 103.365 180.478 103.673C180.653 103.975 180.899 104.209 181.216 104.373C181.539 104.532 181.921 104.611 182.362 104.611C182.803 104.611 183.182 104.532 183.5 104.373C183.818 104.209 184.062 103.975 184.231 103.673C184.405 103.365 184.492 102.996 184.492 102.566ZM185.661 97.3445C185.661 97.8879 185.517 98.3774 185.23 98.8132C184.943 99.2489 184.551 99.5923 184.054 99.8435C183.557 100.095 182.993 100.22 182.362 100.22C181.721 100.22 181.15 100.095 180.647 99.8435C180.15 99.5923 179.761 99.2489 179.479 98.8132C179.197 98.3774 179.056 97.8879 179.056 97.3445C179.056 96.6934 179.197 96.1398 179.479 95.6836C179.766 95.2273 180.158 94.8787 180.655 94.6378C181.152 94.3969 181.719 94.2764 182.355 94.2764C182.995 94.2764 183.564 94.3969 184.062 94.6378C184.559 94.8787 184.948 95.2273 185.23 95.6836C185.517 96.1398 185.661 96.6934 185.661 97.3445ZM184.238 97.3675C184.238 96.9933 184.159 96.6627 184 96.3756C183.841 96.0885 183.621 95.863 183.339 95.6989C183.057 95.5298 182.729 95.4452 182.355 95.4452C181.98 95.4452 181.652 95.5246 181.37 95.6836C181.093 95.8373 180.876 96.0578 180.717 96.3449C180.563 96.6319 180.486 96.9728 180.486 97.3675C180.486 97.752 180.563 98.0878 180.717 98.3749C180.876 98.6619 181.096 98.8849 181.378 99.0438C181.66 99.2028 181.988 99.2822 182.362 99.2822C182.736 99.2822 183.062 99.2028 183.339 99.0438C183.621 98.8849 183.841 98.6619 184 98.3749C184.159 98.0878 184.238 97.752 184.238 97.3675ZM194.957 94.4302V95.2299L190.321 105.626H188.821L193.45 95.599H187.391V94.4302H194.957ZM196.457 97.1753V96.5832C196.457 96.1577 196.549 95.7707 196.734 95.4221C196.918 95.0735 197.182 94.7942 197.526 94.584C197.869 94.3738 198.277 94.2687 198.748 94.2687C199.23 94.2687 199.64 94.3738 199.979 94.584C200.322 94.7942 200.586 95.0735 200.771 95.4221C200.955 95.7707 201.047 96.1577 201.047 96.5832V97.1753C201.047 97.5905 200.955 97.9724 200.771 98.321C200.591 98.6696 200.33 98.949 199.986 99.1592C199.648 99.3694 199.24 99.4744 198.764 99.4744C198.287 99.4744 197.874 99.3694 197.526 99.1592C197.182 98.949 196.918 98.6696 196.734 98.321C196.549 97.9724 196.457 97.5905 196.457 97.1753ZM197.526 96.5832V97.1753C197.526 97.4111 197.569 97.6341 197.656 97.8443C197.749 98.0545 197.887 98.2262 198.072 98.3595C198.256 98.4876 198.487 98.5517 198.764 98.5517C199.041 98.5517 199.269 98.4876 199.448 98.3595C199.628 98.2262 199.761 98.0545 199.848 97.8443C199.935 97.6341 199.979 97.4111 199.979 97.1753V96.5832C199.979 96.3423 199.933 96.1167 199.84 95.9066C199.753 95.6913 199.617 95.5195 199.433 95.3914C199.253 95.2581 199.025 95.1914 198.748 95.1914C198.477 95.1914 198.249 95.2581 198.064 95.3914C197.885 95.5195 197.749 95.6913 197.656 95.9066C197.569 96.1167 197.526 96.3423 197.526 96.5832ZM201.909 103.481V102.881C201.909 102.461 202.001 102.076 202.186 101.727C202.37 101.379 202.634 101.099 202.978 100.889C203.321 100.679 203.729 100.574 204.2 100.574C204.682 100.574 205.092 100.679 205.43 100.889C205.774 101.099 206.038 101.379 206.222 101.727C206.407 102.076 206.499 102.461 206.499 102.881V103.481C206.499 103.901 206.407 104.285 206.222 104.634C206.043 104.983 205.782 105.262 205.438 105.472C205.1 105.682 204.692 105.787 204.216 105.787C203.739 105.787 203.329 105.682 202.985 105.472C202.642 105.262 202.375 104.983 202.186 104.634C202.001 104.285 201.909 103.901 201.909 103.481ZM202.978 102.881V103.481C202.978 103.716 203.021 103.942 203.108 104.157C203.201 104.367 203.339 104.539 203.523 104.672C203.708 104.801 203.939 104.865 204.216 104.865C204.492 104.865 204.72 104.801 204.9 104.672C205.084 104.539 205.22 104.367 205.307 104.157C205.395 103.947 205.438 103.722 205.438 103.481V102.881C205.438 102.64 205.392 102.414 205.3 102.204C205.213 101.994 205.077 101.825 204.892 101.697C204.713 101.563 204.482 101.497 204.2 101.497C203.928 101.497 203.7 101.563 203.516 101.697C203.336 101.825 203.201 101.994 203.108 102.204C203.021 102.414 202.978 102.64 202.978 102.881ZM204.554 96.0219L199.087 104.772L198.287 104.265L203.754 95.5144L204.554 96.0219Z" fill="#EF2A82"/>
<path d="M180.036 116.541V116.46C180.036 116.186 180.076 115.932 180.156 115.698C180.235 115.462 180.35 115.257 180.5 115.084C180.649 114.909 180.831 114.773 181.044 114.677C181.257 114.579 181.495 114.53 181.76 114.53C182.027 114.53 182.267 114.579 182.48 114.677C182.695 114.773 182.877 114.909 183.027 115.084C183.179 115.257 183.295 115.462 183.375 115.698C183.454 115.932 183.494 116.186 183.494 116.46V116.541C183.494 116.815 183.454 117.069 183.375 117.303C183.295 117.537 183.179 117.742 183.027 117.917C182.877 118.09 182.696 118.226 182.483 118.324C182.272 118.42 182.034 118.468 181.767 118.468C181.5 118.468 181.26 118.42 181.047 118.324C180.834 118.226 180.652 118.09 180.5 117.917C180.35 117.742 180.235 117.537 180.156 117.303C180.076 117.069 180.036 116.815 180.036 116.541ZM180.686 116.46V116.541C180.686 116.731 180.708 116.91 180.752 117.078C180.797 117.244 180.864 117.392 180.953 117.52C181.044 117.649 181.157 117.751 181.293 117.826C181.429 117.898 181.587 117.935 181.767 117.935C181.945 117.935 182.1 117.898 182.234 117.826C182.37 117.751 182.482 117.649 182.571 117.52C182.66 117.392 182.726 117.244 182.771 117.078C182.818 116.91 182.841 116.731 182.841 116.541V116.46C182.841 116.273 182.818 116.096 182.771 115.93C182.726 115.762 182.659 115.613 182.567 115.484C182.478 115.353 182.366 115.25 182.23 115.175C182.097 115.101 181.94 115.063 181.76 115.063C181.582 115.063 181.425 115.101 181.29 115.175C181.156 115.25 181.044 115.353 180.953 115.484C180.864 115.613 180.797 115.762 180.752 115.93C180.708 116.096 180.686 116.273 180.686 116.46ZM184.958 115.33V119.858H184.305V114.6H184.902L184.958 115.33ZM187.517 116.467V116.541C187.517 116.817 187.484 117.073 187.419 117.31C187.353 117.544 187.257 117.747 187.131 117.921C187.007 118.094 186.854 118.228 186.671 118.324C186.488 118.42 186.279 118.468 186.043 118.468C185.802 118.468 185.589 118.428 185.404 118.349C185.219 118.269 185.062 118.153 184.933 118.001C184.805 117.849 184.702 117.667 184.624 117.454C184.55 117.241 184.498 117.001 184.47 116.734V116.341C184.498 116.06 184.551 115.808 184.628 115.586C184.705 115.364 184.807 115.174 184.933 115.017C185.062 114.858 185.218 114.738 185.4 114.656C185.583 114.572 185.793 114.53 186.032 114.53C186.271 114.53 186.483 114.576 186.667 114.67C186.852 114.761 187.008 114.892 187.134 115.063C187.261 115.234 187.355 115.439 187.419 115.677C187.484 115.914 187.517 116.177 187.517 116.467ZM186.864 116.541V116.467C186.864 116.278 186.844 116.1 186.804 115.934C186.765 115.765 186.703 115.618 186.618 115.491C186.536 115.363 186.431 115.262 186.302 115.189C186.174 115.115 186.02 115.077 185.843 115.077C185.679 115.077 185.536 115.105 185.414 115.161C185.295 115.218 185.193 115.294 185.109 115.39C185.025 115.483 184.956 115.591 184.902 115.713C184.85 115.832 184.812 115.956 184.786 116.085V116.994C184.833 117.158 184.898 117.312 184.982 117.457C185.067 117.6 185.179 117.716 185.319 117.805C185.46 117.891 185.637 117.935 185.85 117.935C186.025 117.935 186.176 117.898 186.302 117.826C186.431 117.751 186.536 117.649 186.618 117.52C186.703 117.392 186.765 117.244 186.804 117.078C186.844 116.91 186.864 116.731 186.864 116.541ZM189.936 114.6V115.098H187.882V114.6H189.936ZM188.577 113.676H189.227V117.457C189.227 117.586 189.246 117.683 189.286 117.749C189.326 117.814 189.377 117.857 189.441 117.878C189.504 117.899 189.572 117.91 189.644 117.91C189.698 117.91 189.754 117.905 189.813 117.896C189.874 117.884 189.919 117.875 189.95 117.868L189.953 118.398C189.902 118.414 189.834 118.43 189.75 118.444C189.668 118.46 189.568 118.468 189.451 118.468C189.292 118.468 189.146 118.437 189.012 118.373C188.879 118.31 188.773 118.205 188.693 118.057C188.616 117.908 188.577 117.706 188.577 117.454V113.676ZM191.403 114.6V118.398H190.75V114.6H191.403ZM190.701 113.592C190.701 113.487 190.732 113.398 190.796 113.325C190.861 113.253 190.957 113.217 191.084 113.217C191.208 113.217 191.302 113.253 191.368 113.325C191.436 113.398 191.47 113.487 191.47 113.592C191.47 113.693 191.436 113.779 191.368 113.852C191.302 113.922 191.208 113.957 191.084 113.957C190.957 113.957 190.861 113.922 190.796 113.852C190.732 113.779 190.701 113.693 190.701 113.592ZM192.274 116.541V116.46C192.274 116.186 192.313 115.932 192.393 115.698C192.472 115.462 192.587 115.257 192.737 115.084C192.887 114.909 193.068 114.773 193.281 114.677C193.494 114.579 193.733 114.53 193.997 114.53C194.264 114.53 194.504 114.579 194.717 114.677C194.932 114.773 195.115 114.909 195.264 115.084C195.417 115.257 195.532 115.462 195.612 115.698C195.691 115.932 195.731 116.186 195.731 116.46V116.541C195.731 116.815 195.691 117.069 195.612 117.303C195.532 117.537 195.417 117.742 195.264 117.917C195.115 118.09 194.933 118.226 194.72 118.324C194.51 118.42 194.271 118.468 194.004 118.468C193.737 118.468 193.497 118.42 193.285 118.324C193.072 118.226 192.889 118.09 192.737 117.917C192.587 117.742 192.472 117.537 192.393 117.303C192.313 117.069 192.274 116.815 192.274 116.541ZM192.923 116.46V116.541C192.923 116.731 192.945 116.91 192.99 117.078C193.034 117.244 193.101 117.392 193.19 117.52C193.281 117.649 193.395 117.751 193.53 117.826C193.666 117.898 193.824 117.935 194.004 117.935C194.182 117.935 194.338 117.898 194.471 117.826C194.607 117.751 194.719 117.649 194.808 117.52C194.897 117.392 194.964 117.244 195.008 117.078C195.055 116.91 195.078 116.731 195.078 116.541V116.46C195.078 116.273 195.055 116.096 195.008 115.93C194.964 115.762 194.896 115.613 194.805 115.484C194.716 115.353 194.603 115.25 194.468 115.175C194.334 115.101 194.177 115.063 193.997 115.063C193.819 115.063 193.662 115.101 193.527 115.175C193.393 115.25 193.281 115.353 193.19 115.484C193.101 115.613 193.034 115.762 192.99 115.93C192.945 116.096 192.923 116.273 192.923 116.46ZM197.195 115.411V118.398H196.546V114.6H197.16L197.195 115.411ZM197.041 116.355L196.77 116.344C196.773 116.085 196.811 115.845 196.886 115.625C196.961 115.402 197.066 115.209 197.202 115.046C197.338 114.882 197.499 114.755 197.687 114.666C197.876 114.575 198.086 114.53 198.315 114.53C198.502 114.53 198.671 114.555 198.82 114.607C198.97 114.656 199.098 114.735 199.203 114.845C199.311 114.955 199.393 115.098 199.449 115.274C199.505 115.447 199.533 115.659 199.533 115.909V118.398H198.88V115.902C198.88 115.703 198.851 115.544 198.792 115.425C198.734 115.303 198.648 115.215 198.536 115.161C198.424 115.105 198.286 115.077 198.122 115.077C197.96 115.077 197.813 115.111 197.68 115.179C197.548 115.247 197.435 115.34 197.339 115.46C197.245 115.579 197.172 115.716 197.118 115.87C197.066 116.023 197.041 116.184 197.041 116.355ZM205.581 117.864V118.398H202.236V117.931L203.91 116.067C204.116 115.838 204.276 115.643 204.388 115.484C204.503 115.323 204.582 115.179 204.627 115.053C204.673 114.924 204.697 114.793 204.697 114.659C204.697 114.491 204.662 114.339 204.591 114.203C204.524 114.065 204.423 113.955 204.29 113.873C204.156 113.791 203.995 113.75 203.805 113.75C203.578 113.75 203.389 113.795 203.236 113.884C203.087 113.97 202.974 114.092 202.899 114.249C202.825 114.405 202.787 114.586 202.787 114.789H202.138C202.138 114.501 202.201 114.238 202.327 113.999C202.454 113.761 202.641 113.571 202.889 113.431C203.137 113.288 203.442 113.217 203.805 113.217C204.128 113.217 204.404 113.274 204.634 113.389C204.863 113.501 205.038 113.66 205.16 113.866C205.284 114.07 205.346 114.308 205.346 114.582C205.346 114.732 205.32 114.884 205.269 115.039C205.22 115.191 205.151 115.343 205.062 115.495C204.975 115.647 204.873 115.797 204.756 115.944C204.642 116.092 204.519 116.237 204.388 116.379L203.019 117.864H205.581Z" fill="#8794BA"/>
<path d="M92.5326 50.9698C92.4982 50.056 93.2115 49.2834 94.1259 49.29C102.091 49.3475 109.841 51.9789 116.206 56.8147C123.013 61.9851 127.816 69.3554 129.797 77.67C131.778 85.9846 130.815 94.729 127.072 102.413C123.329 110.097 117.037 116.246 109.269 119.811C101.501 123.377 92.7366 124.138 84.4698 121.966C76.203 119.794 68.9451 114.822 63.9328 107.899C58.9204 100.976 56.4638 92.5283 56.9814 83.9966C57.4655 76.0169 60.5234 68.4251 65.6729 62.3488C66.2641 61.6511 67.3149 61.6141 67.9854 62.2359C68.6559 62.8578 68.6918 63.903 68.1036 64.6033C63.4736 70.1159 60.7247 76.9824 60.287 84.1972C59.8157 91.9641 62.0522 99.6542 66.6152 105.957C71.1783 112.26 77.7856 116.786 85.3114 118.763C92.8371 120.74 100.816 120.047 107.888 116.801C114.96 113.556 120.687 107.958 124.095 100.963C127.503 93.9675 128.379 86.007 126.576 78.4377C124.772 70.8684 120.399 64.1587 114.203 59.4518C108.448 55.0795 101.449 52.6867 94.2504 52.603C93.336 52.5923 92.5669 51.8837 92.5326 50.9698Z" fill="#EF2A82"/>
<path d="M91.8784 35.3419C91.8271 34.023 92.8551 32.9067 94.1749 32.9145C104.513 32.9756 114.63 36.0422 123.281 41.7659C132.597 47.93 139.742 56.8643 143.707 67.3078C147.673 77.7512 148.257 89.1763 145.38 99.9701C142.502 110.764 136.307 120.381 127.669 127.465C119.031 134.548 108.386 138.739 97.238 139.447C86.0896 140.155 75.0004 137.344 65.5358 131.41C56.0713 125.476 48.7094 116.72 44.4895 106.376C40.571 96.7722 39.5454 86.2504 41.5104 76.1004C41.7612 74.8046 43.0573 74.0152 44.3405 74.3238C45.6237 74.6325 46.4077 75.9223 46.1625 77.2192C44.4283 86.3943 45.3747 95.894 48.9149 104.571C52.7565 113.987 59.4585 121.959 68.0747 127.36C76.6908 132.762 86.786 135.322 96.9351 134.677C107.084 134.033 116.775 130.217 124.638 123.769C132.502 117.32 138.142 108.565 140.762 98.7388C143.381 88.9125 142.849 78.5116 139.239 69.0043C135.629 59.4969 129.125 51.3634 120.644 45.7519C112.828 40.5808 103.698 37.7921 94.3608 37.6957C93.041 37.682 91.9297 36.6607 91.8784 35.3419Z" fill="#0088F0"/>
<path d="M88.6353 85.8178L88.2889 85.7288L88.4598 84.0322H90.2079V84.4323H88.8272L88.7242 85.3591C88.7866 85.3232 88.8654 85.2897 88.9606 85.2585C89.0573 85.2273 89.1681 85.2117 89.2929 85.2117C89.4505 85.2117 89.5917 85.239 89.7165 85.2936C89.8413 85.3466 89.9474 85.4231 90.0347 85.5229C90.1237 85.6228 90.1915 85.7429 90.2384 85.8833C90.2852 86.0237 90.3086 86.1805 90.3086 86.3537C90.3086 86.5175 90.2859 86.6681 90.2407 86.8054C90.197 86.9427 90.1307 87.0628 90.0418 87.1658C89.9528 87.2672 89.8405 87.346 89.7048 87.4021C89.5706 87.4583 89.4122 87.4864 89.2297 87.4864C89.0924 87.4864 88.9621 87.4677 88.8389 87.4302C88.7172 87.3912 88.608 87.3327 88.5112 87.2547C88.4161 87.1751 88.3381 87.0768 88.2772 86.9598C88.2179 86.8412 88.1805 86.7024 88.1649 86.5433H88.5768C88.5955 86.6712 88.6329 86.7788 88.6891 86.8662C88.7453 86.9536 88.8186 87.0199 88.9091 87.0651C89.0011 87.1088 89.108 87.1307 89.2297 87.1307C89.3327 87.1307 89.4239 87.1127 89.5035 87.0768C89.5831 87.041 89.6502 86.9895 89.7048 86.9224C89.7594 86.8553 89.8007 86.7742 89.8288 86.679C89.8584 86.5838 89.8733 86.4769 89.8733 86.3584C89.8733 86.2507 89.8584 86.1509 89.8288 86.0588C89.7992 85.9668 89.7547 85.8864 89.6954 85.8178C89.6377 85.7491 89.5667 85.6961 89.4824 85.6586C89.3982 85.6196 89.3015 85.6001 89.1923 85.6001C89.0472 85.6001 88.9372 85.6196 88.8623 85.6586C88.789 85.6976 88.7133 85.7507 88.6353 85.8178ZM91.3313 85.8178L90.9849 85.7288L91.1557 84.0322H92.9039V84.4323H91.5232L91.4202 85.3591C91.4826 85.3232 91.5614 85.2897 91.6565 85.2585C91.7533 85.2273 91.864 85.2117 91.9889 85.2117C92.1464 85.2117 92.2876 85.239 92.4124 85.2936C92.5373 85.3466 92.6434 85.4231 92.7307 85.5229C92.8197 85.6228 92.8875 85.7429 92.9343 85.8833C92.9811 86.0237 93.0045 86.1805 93.0045 86.3537C93.0045 86.5175 92.9819 86.6681 92.9367 86.8054C92.893 86.9427 92.8267 87.0628 92.7377 87.1658C92.6488 87.2672 92.5365 87.346 92.4007 87.4021C92.2666 87.4583 92.1082 87.4864 91.9257 87.4864C91.7884 87.4864 91.6581 87.4677 91.5349 87.4302C91.4132 87.3912 91.3039 87.3327 91.2072 87.2547C91.112 87.1751 91.034 87.0768 90.9732 86.9598C90.9139 86.8412 90.8765 86.7024 90.8609 86.5433H91.2727C91.2915 86.6712 91.3289 86.7788 91.3851 86.8662C91.4412 86.9536 91.5146 87.0199 91.6051 87.0651C91.6971 87.1088 91.804 87.1307 91.9257 87.1307C92.0286 87.1307 92.1199 87.1127 92.1995 87.0768C92.2791 87.041 92.3461 86.9895 92.4007 86.9224C92.4554 86.8553 92.4967 86.7742 92.5248 86.679C92.5544 86.5838 92.5692 86.4769 92.5692 86.3584C92.5692 86.2507 92.5544 86.1509 92.5248 86.0588C92.4951 85.9668 92.4507 85.8864 92.3914 85.8178C92.3337 85.7491 92.2627 85.6961 92.1784 85.6586C92.0942 85.6196 91.9974 85.6001 91.8882 85.6001C91.7431 85.6001 91.6331 85.6196 91.5583 85.6586C91.4849 85.6976 91.4093 85.7507 91.3313 85.8178ZM94.4274 85.8131V86.1688H93.2854V85.8131H94.4274ZM96.4658 84.0275H96.5032V84.3949H96.4658C96.2364 84.3949 96.0445 84.4323 95.8901 84.5072C95.7356 84.5806 95.6131 84.6796 95.5227 84.8044C95.4322 84.9277 95.3666 85.0666 95.3261 85.221C95.2871 85.3755 95.2676 85.5323 95.2676 85.6914V86.1922C95.2676 86.3436 95.2855 86.4777 95.3214 86.5947C95.3573 86.7102 95.4064 86.8077 95.4688 86.8873C95.5312 86.9668 95.6014 87.0269 95.6794 87.0675C95.759 87.108 95.8417 87.1283 95.9275 87.1283C96.0274 87.1283 96.1163 87.1096 96.1943 87.0722C96.2723 87.0332 96.3378 86.9793 96.3909 86.9107C96.4455 86.8405 96.4868 86.7578 96.5149 86.6626C96.543 86.5674 96.557 86.4629 96.557 86.349C96.557 86.2476 96.5446 86.1501 96.5196 86.0565C96.4946 85.9613 96.4564 85.8771 96.4049 85.8037C96.3534 85.7288 96.2887 85.6703 96.2107 85.6282C96.1342 85.5845 96.043 85.5627 95.9369 85.5627C95.8167 85.5627 95.7044 85.5923 95.5999 85.6516C95.4969 85.7093 95.4119 85.7858 95.3448 85.881C95.2793 85.9746 95.2418 86.0768 95.2325 86.1875L95.0031 86.1852C95.025 86.0105 95.0655 85.8615 95.1248 85.7382C95.1857 85.6134 95.2605 85.512 95.3495 85.434C95.44 85.3544 95.5406 85.2967 95.6514 85.2608C95.7637 85.2234 95.8823 85.2046 96.0071 85.2046C96.1771 85.2046 96.3238 85.2366 96.4471 85.3006C96.5703 85.3645 96.6717 85.4504 96.7513 85.558C96.8309 85.6641 96.8894 85.7842 96.9268 85.9184C96.9658 86.051 96.9853 86.1875 96.9853 86.328C96.9853 86.4887 96.9627 86.6392 96.9174 86.7796C96.8722 86.92 96.8043 87.0433 96.7138 87.1494C96.6249 87.2555 96.5149 87.3382 96.3839 87.3975C96.2528 87.4567 96.1007 87.4864 95.9275 87.4864C95.7434 87.4864 95.5827 87.4489 95.4454 87.374C95.3081 87.2976 95.1942 87.1962 95.1037 87.0698C95.0133 86.9434 94.9454 86.803 94.9001 86.6486C94.8549 86.4941 94.8323 86.3373 94.8323 86.1782V85.9746C94.8323 85.7343 94.8565 85.4987 94.9048 85.2678C94.9532 85.0369 95.0367 84.8278 95.1552 84.6406C95.2754 84.4534 95.4415 84.3044 95.6537 84.1936C95.8659 84.0829 96.1366 84.0275 96.4658 84.0275ZM99.803 86.2928V86.6486H97.341V86.3935L98.8669 84.0322H99.2203L98.8411 84.7155L97.8325 86.2928H99.803ZM99.3279 84.0322V87.4396H98.895V84.0322H99.3279Z" fill="#8794BA"/>
<path d="M25.3389 20.1961L23.8349 24.3368H23.2202L24.952 19.7936H25.3483L25.3389 20.1961ZM26.5996 24.3368L25.0924 20.1961L25.0831 19.7936H25.4794L27.2174 24.3368H26.5996ZM26.5215 22.6549V23.1479H23.9691V22.6549H26.5215ZM29.9258 20.9606H30.4501V24.265C30.4501 24.5625 30.3897 24.8163 30.2691 25.0264C30.1484 25.2365 29.9799 25.3956 29.7636 25.5038C29.5493 25.6141 29.3018 25.6692 29.0209 25.6692C28.9044 25.6692 28.7672 25.6505 28.6091 25.613C28.453 25.5776 28.2991 25.5163 28.1472 25.4289C27.9975 25.3436 27.8716 25.2282 27.7697 25.0826L28.0724 24.7393C28.2138 24.9099 28.3615 25.0285 28.5154 25.095C28.6715 25.1616 28.8254 25.1949 28.9773 25.1949C29.1603 25.1949 29.3184 25.1606 29.4515 25.0919C29.5847 25.0233 29.6877 24.9213 29.7605 24.7861C29.8353 24.653 29.8728 24.4886 29.8728 24.2931V21.7032L29.9258 20.9606ZM27.6012 22.6861V22.6206C27.6012 22.3627 27.6313 22.1286 27.6917 21.9185C27.7541 21.7063 27.8425 21.5243 27.9569 21.3725C28.0734 21.2206 28.2138 21.1041 28.3781 21.023C28.5425 20.9398 28.7276 20.8982 28.9336 20.8982C29.1458 20.8982 29.3309 20.9356 29.489 21.0105C29.6492 21.0833 29.7844 21.1904 29.8946 21.3319C30.007 21.4713 30.0954 21.6398 30.1599 21.8374C30.2244 22.035 30.2691 22.2586 30.294 22.5083V22.7953C30.2712 23.0429 30.2264 23.2655 30.1599 23.4631C30.0954 23.6607 30.007 23.8292 29.8946 23.9686C29.7844 24.108 29.6492 24.2151 29.489 24.29C29.3288 24.3628 29.1416 24.3992 28.9273 24.3992C28.7255 24.3992 28.5425 24.3566 28.3781 24.2713C28.2159 24.186 28.0765 24.0664 27.96 23.9124C27.8435 23.7585 27.7541 23.5775 27.6917 23.3695C27.6313 23.1594 27.6012 22.9316 27.6012 22.6861ZM28.1784 22.6206V22.6861C28.1784 22.8546 28.1951 23.0127 28.2284 23.1604C28.2637 23.3081 28.3168 23.4381 28.3875 23.5505C28.4603 23.6628 28.5529 23.7512 28.6652 23.8157C28.7776 23.8781 28.9117 23.9093 29.0677 23.9093C29.2591 23.9093 29.4172 23.8687 29.542 23.7876C29.6669 23.7065 29.7657 23.5994 29.8385 23.4662C29.9134 23.3331 29.9716 23.1885 30.0132 23.0325V22.2805C29.9903 22.1661 29.955 22.0558 29.9071 21.9497C29.8614 21.8416 29.801 21.7459 29.7261 21.6627C29.6533 21.5774 29.5628 21.5098 29.4547 21.4598C29.3465 21.4099 29.2196 21.3849 29.074 21.3849C28.9159 21.3849 28.7796 21.4182 28.6652 21.4848C28.5529 21.5493 28.4603 21.6387 28.3875 21.7531C28.3168 21.8655 28.2637 21.9965 28.2284 22.1463C28.1951 22.294 28.1784 22.4521 28.1784 22.6206ZM32.7279 24.3992C32.4928 24.3992 32.2796 24.3597 32.0882 24.2806C31.8989 24.1995 31.7356 24.0861 31.5983 23.9405C31.4631 23.7949 31.3591 23.6222 31.2863 23.4225C31.2135 23.2228 31.1771 23.0044 31.1771 22.7673V22.6362C31.1771 22.3616 31.2177 22.1172 31.2988 21.9029C31.3799 21.6866 31.4902 21.5035 31.6295 21.3537C31.7689 21.204 31.927 21.0906 32.1038 21.0136C32.2807 20.9367 32.4637 20.8982 32.653 20.8982C32.8943 20.8982 33.1023 20.9398 33.2771 21.023C33.4539 21.1062 33.5985 21.2227 33.7108 21.3725C33.8231 21.5202 33.9064 21.6949 33.9604 21.8967C34.0145 22.0964 34.0416 22.3148 34.0416 22.552V22.8109H31.5203V22.3398H33.4643V22.2961C33.456 22.1463 33.4248 22.0007 33.3707 21.8592C33.3187 21.7178 33.2355 21.6013 33.1211 21.5098C33.0067 21.4182 32.8506 21.3725 32.653 21.3725C32.522 21.3725 32.4013 21.4005 32.2911 21.4567C32.1808 21.5108 32.0862 21.5919 32.0071 21.7001C31.9281 21.8083 31.8667 21.9404 31.823 22.0964C31.7793 22.2524 31.7575 22.4323 31.7575 22.6362V22.7673C31.7575 22.9274 31.7793 23.0783 31.823 23.2197C31.8688 23.3591 31.9343 23.4818 32.0196 23.5879C32.107 23.694 32.212 23.7772 32.3347 23.8375C32.4596 23.8979 32.601 23.928 32.7591 23.928C32.963 23.928 33.1356 23.8864 33.2771 23.8032C33.4185 23.72 33.5423 23.6087 33.6484 23.4693L33.9979 23.747C33.9251 23.8573 33.8325 23.9624 33.7202 24.0622C33.6078 24.1621 33.4695 24.2432 33.3052 24.3056C33.1429 24.368 32.9505 24.3992 32.7279 24.3992ZM36.6814 23.4413C36.6814 23.358 36.6627 23.2811 36.6252 23.2103C36.5899 23.1375 36.516 23.072 36.4037 23.0138C36.2934 22.9534 36.127 22.9014 35.9044 22.8577C35.7172 22.8182 35.5477 22.7714 35.3958 22.7173C35.246 22.6632 35.1181 22.5977 35.012 22.5208C34.908 22.4438 34.8279 22.3533 34.7717 22.2493C34.7156 22.1453 34.6875 22.0236 34.6875 21.8842C34.6875 21.7511 34.7166 21.6252 34.7749 21.5066C34.8352 21.3881 34.9194 21.283 35.0276 21.1915C35.1379 21.1 35.2699 21.0282 35.4239 20.9762C35.5778 20.9242 35.7494 20.8982 35.9387 20.8982C36.2092 20.8982 36.4401 20.946 36.6315 21.0417C36.8228 21.1374 36.9695 21.2653 37.0714 21.4255C37.1734 21.5836 37.2243 21.7594 37.2243 21.9529H36.6471C36.6471 21.8592 36.619 21.7687 36.5628 21.6814C36.5087 21.5919 36.4286 21.5181 36.3225 21.4598C36.2185 21.4016 36.0906 21.3725 35.9387 21.3725C35.7786 21.3725 35.6485 21.3974 35.5487 21.4474C35.4509 21.4952 35.3792 21.5566 35.3334 21.6315C35.2897 21.7063 35.2679 21.7854 35.2679 21.8686C35.2679 21.931 35.2783 21.9872 35.2991 22.0371C35.322 22.0849 35.3615 22.1297 35.4176 22.1713C35.4738 22.2108 35.5529 22.2482 35.6548 22.2836C35.7567 22.319 35.8867 22.3543 36.0448 22.3897C36.3215 22.4521 36.5493 22.527 36.7282 22.6144C36.9071 22.7017 37.0402 22.8089 37.1276 22.9358C37.215 23.0627 37.2586 23.2166 37.2586 23.3976C37.2586 23.5453 37.2274 23.6805 37.165 23.8032C37.1047 23.9259 37.0163 24.032 36.8998 24.1215C36.7854 24.2089 36.6481 24.2775 36.4879 24.3274C36.3298 24.3753 36.152 24.3992 35.9543 24.3992C35.6569 24.3992 35.4052 24.3462 35.1992 24.2401C34.9933 24.134 34.8373 23.9967 34.7312 23.8282C34.6251 23.6597 34.572 23.4818 34.572 23.2946H35.1524C35.1607 23.4527 35.2065 23.5785 35.2897 23.6722C35.3729 23.7637 35.4748 23.8292 35.5955 23.8687C35.7162 23.9062 35.8358 23.9249 35.9543 23.9249C36.1124 23.9249 36.2445 23.9041 36.3506 23.8625C36.4588 23.8209 36.541 23.7637 36.5971 23.6909C36.6533 23.6181 36.6814 23.5349 36.6814 23.4413Z" fill="#8794BA"/>
</svg>
